<?xml version="1.0" standalone="no"?>
<!DOCTYPE svg PUBLIC "-//W3C//DTD SVG 1.1//EN" "http://www.w3.org/Graphics/SVG/1.1/DTD/svg11.dtd" >
<svg xmlns="http://www.w3.org/2000/svg" xmlns:xlink="http://www.w3.org/1999/xlink" version="1.1">
    <metadata>
        Created by FontForge 20160405 at Thu Nov 17 04:27:20 2016
        By www-data
        Copyright(c) PanWanqiong Electronics Co.,Ltd.2012
    </metadata>
    <defs>
        <font id="K'aS" horiz-adv-x="512">
            <font-face
                    font-family="K'aS"
                    font-weight="400"
                    font-stretch="normal"
                    units-per-em="512"
                    panose-1="2 1 6 0 1 1 1 1 1 1"
                    ascent="440"
                    descent="-72"
                    bbox="-3 -61.3333 496 440"
                    underline-thickness="0"
                    underline-position="0"
                    unicode-range="U+0025-FF0C"
            />
            <missing-glyph
                    d="M14 43q-14 -16 -6 -35q12 -3 23 -2q2 14 12 15q2 9 -2 16q-13 8 -27 6zM80 364q-22 -112 -46 -232q1 -14 11 -21q11 -1 20 5q13 123 34 244q-7 10 -19 4z"/>
            <glyph glyph-name=".notdef"
                   d="M14 43q-14 -16 -6 -35q12 -3 23 -2q2 14 12 15q2 9 -2 16q-13 8 -27 6zM80 364q-22 -112 -46 -232q1 -14 11 -21q11 -1 20 5q13 123 34 244q-7 10 -19 4z"/>
            <glyph glyph-name=".notdef"
                   d="M14 43q-14 -16 -6 -35q12 -3 23 -2q2 14 12 15q2 9 -2 16q-13 8 -27 6zM80 364q-22 -112 -46 -232q1 -14 11 -21q11 -1 20 5q13 123 34 244q-7 10 -19 4z"/>
            <glyph glyph-name=".null" horiz-adv-x="0"
            />
            <glyph glyph-name="nonmarkingreturn" horiz-adv-x="170"
            />
            <glyph glyph-name="percent" unicode="%" horiz-adv-x="228"
                   d="M141 155q-10 -40 -8 -85q4 -10 11 -18q9 -5 21 -7q10 7 20 15q19 35 23 75q-10 15 -22 24q-10 5 -23 7q-14 -3 -22 -11zM182 144q12 -10 9 -30q-13 -27 -30 -49h-10q-1 33 4 66q8 14 27 13zM56 313q-6 -7 -10 -17q-4 -29 -4 -61q10 -16 29 -16q10 9 21 19q10 29 17 57
q-14 8 -24 20q-14 -2 -29 -2zM89 293q-4 -29 -16 -49q-5 -2 -14 -4q4 9 -1 20q11 6 17 16q-5 6 -5 12q8 9 19 5zM158 347q-62 -152 -113 -314q1 -13 14 -20q17 22 29 50q-9 1 -13 6q19 70 45 134q8 9 16 21l38 110q-4 16 -16 13z"/>
            <glyph glyph-name="period" unicode="." horiz-adv-x="101"
                   d="M49 23q6 -7 15 -11q10 7 16 17q1 22 -14 28q-18 -9 -17 -34z"/>
            <glyph glyph-name="zero" unicode="0" horiz-adv-x="244"
                   d="M70 288q-15 -14 -25 -30q-6 -33 -20 -60q0 -60 2 -123q9 -20 18 -43q16 -12 41 -15q13 9 32 11q21 22 47 38q22 49 54 93q-7 4 -4 14q4 2 9 1q-9 29 0 55q-6 3 -9 7v26q-23 29 -51 52h-38q-11 15 -22 25h-17q-11 -23 -17 -51zM166 284q6 -14 21 -21q8 -31 7 -76
q-19 -41 -34 -86q-9 -1 -13 -5v-17q-30 -9 -51 -30q-13 -4 -29 -5q-4 7 -10 10q-5 29 -9 56q1 48 11 106q10 17 21 32v17q21 2 40 -3q7 11 16 17q13 5 30 5z"/>
            <glyph glyph-name="one" unicode="1" horiz-adv-x="196"
                   d="M125 300v-21q-12 -10 -23 -21v-17q-18 -30 -33 -63q-6 -21 -8 -45l-14 -10v-22q-12 -17 -24 -33q-1 -23 11 -37h11q8 17 7 42q25 49 42 104q4 2 9 1q13 35 26 68q7 10 18 12q14 36 29 67q-15 8 -31 13q-10 -20 -20 -38z"/>
            <glyph glyph-name="two" unicode="2" horiz-adv-x="266"
                   d="M100 341q-23 -11 -37 -29q-1 -8 0 -21q6 -10 19 -11q10 11 17 25q26 4 51 2q1 -3 1 -7q6 7 19 5q5 -6 11 -13q0 -23 5 -45q-11 -25 -13 -58q-22 -20 -30 -52q-6 -1 -13 -1q-10 -10 -13 -25q-22 -18 -41 -36q-8 -1 -17 -1q-5 -6 -9 -13q-35 1 -53 -12q9 -11 20 -21
q42 4 77 18q72 5 145 9q3 7 7 14q-7 13 -21 20h-50q-5 -5 -10 -11q-18 0 -28 7q-2 6 -1 12q19 19 39 35q3 14 8 26q10 10 20 19q5 25 4 46q3 4 9 5q5 20 4 43q-15 26 -32 50q-26 5 -42 20q-23 3 -46 0z"/>
            <glyph glyph-name="three" unicode="3" horiz-adv-x="235"
                   d="M65 340q-2 -11 8 -16q19 -1 37 2q20 -4 39 -13q10 -10 8 -28q-38 -37 -81 -73q-8 0 -12 2q-7 -4 -5 -14q8 -5 11 -11q27 13 53 27q24 4 54 0q7 -5 14 -13q-2 -26 3 -50q-14 -23 -19 -53q-20 -18 -33 -41q-17 -6 -29 -19h-49q-7 13 -10 25q-14 -7 -18 -24q8 -13 22 -22
q35 -1 66 0q38 28 67 69q10 31 23 59q1 37 -7 65q-10 9 -18 18q-15 7 -33 7q2 27 22 41q3 21 -4 38q-24 22 -55 31q-31 2 -54 -7z"/>
            <glyph glyph-name="four" unicode="4" horiz-adv-x="268"
                   d="M126 339q0 -6 -1 -12q-54 -74 -120 -144q3 -15 16 -24q54 0 104 7q6 -69 -7 -134q5 -8 17 -8q14 69 14 147q18 7 40 12h56q3 7 3 16q-8 8 -18 11q-40 -4 -74 -9q8 49 3 95q-13 3 -17 -6q-3 -48 -9 -100q-52 -12 -95 -9q30 48 63 92q13 12 28 23q8 19 20 36q-4 8 -9 12
q-8 -1 -14 -5z"/>
            <glyph glyph-name="five" unicode="5" horiz-adv-x="241"
                   d="M44 205q-2 -9 3 -17q7 -1 15 -4q8 8 17 15q22 9 48 12q19 -11 36 -26q-3 -32 -10 -62q-20 -40 -50 -81q-35 3 -60 14q-11 26 -17 54q-6 -6 -11 -13v-25q16 -26 38 -43q15 -3 28 -11q22 0 38 8q38 57 66 122q3 20 3 42q-16 25 -41 37q-19 4 -37 6q-7 -6 -14 -11
q-10 -1 -15 3q-3 21 9 31q64 9 127 19q4 20 -7 29q-52 -8 -106 -16q4 27 6 48h-10q-29 -65 -56 -131z"/>
            <glyph glyph-name="six" unicode="6" horiz-adv-x="228"
                   d="M162 342q-23 -30 -49 -59l-6 -24l-14 -4q-11 -33 -28 -59q3 -28 -10 -54q3 -41 1 -83q15 -27 43 -44q22 1 42 7q36 36 67 77q-2 26 -10 58h-9q-11 11 -17 26q-19 2 -27 13q-20 2 -39 3q-5 8 -3 18q25 35 48 72q4 2 11 1q8 20 21 36q13 -3 19 5q-8 9 -17 14q-12 -1 -23 -3
zM156 168q9 -13 12 -25h8q7 -14 6 -42q-10 -9 -19 -15v-11q-20 -17 -39 -35q-17 -6 -34 0q-2 11 -9 14q-2 40 -3 76q4 2 10 1v22q16 7 25 17q21 7 43 -2z"/>
            <glyph glyph-name="seven" unicode="7" horiz-adv-x="241"
                   d="M37 327v-8q16 -5 33 -9q60 1 115 13q2 -12 -2 -24q-13 -4 -23 -11q3 -6 3 -17q-23 -12 -32 -37q-4 -15 -3 -35q-16 -6 -23 -19q-13 -66 -39 -125v-26q6 -4 16 -7q2 15 11 24q-5 9 -3 20q12 17 21 34q-2 12 1 22q37 75 75 144q19 17 34 41q-5 13 -10 25q-12 4 -22 9
q-70 -6 -152 -14z"/>
            <glyph glyph-name="eight" unicode="8" horiz-adv-x="219"
                   d="M75 308q-1 -24 3 -47q17 -30 23 -70q-16 -11 -29 -27q-10 -26 -26 -49q2 -29 9 -57q10 -11 20 -25q19 -13 43 -18q9 10 20 18q8 25 15 49q-2 27 -1 48q-16 27 -20 63q13 13 27 26v15q14 18 36 30q2 13 4 25q-13 12 -13 31q-15 5 -23 20q-17 7 -37 6q-32 -14 -51 -38z
M113 170q14 -26 19 -50q3 -24 0 -52q-11 -13 -15 -30q-9 -6 -21 -5q-13 11 -22 23q-4 17 -10 31q8 42 30 74q9 5 19 9zM128 328q16 1 29 -3q16 -15 21 -41q-20 -18 -41 -42q-13 -5 -27 -9q-13 35 -17 63q15 19 35 32z"/>
            <glyph glyph-name="nine" unicode="9" horiz-adv-x="212"
                   d="M82 343q-11 -8 -19 -21q-8 -28 -7 -61q4 -7 6 -17q18 -18 35 -27q9 4 21 2q1 6 6 10q8 1 12 -4q-16 -42 -45 -79q-6 -13 -6 -29q-26 -37 -45 -79q1 -15 15 -19q9 22 17 46q12 13 21 25q21 53 48 100q8 7 16 12q15 44 35 85q-3 11 -9 18q-11 -1 -21 -3q-3 9 -5 17
q-17 19 -39 27q-18 -1 -36 -3zM127 326q12 -7 21 -18q6 -16 10 -34q-18 -16 -34 -29q-19 -6 -43 -6q-11 37 -3 79q22 9 49 8z"/>
            <glyph glyph-name="uni300A" unicode="&#x300a;"
                   d="M434 364q-22 -56 -49 -110q1 -6 2 -14q-21 -29 -31 -63q-5 -15 -1 -32q18 -18 26 -47q9 0 14 -7q32 -47 63 -102h9q2 -9 -1 -19h16q8 8 14 16q-1 9 -2 16q-33 49 -68 86q-18 43 -41 75q5 29 13 57q19 45 42 80q-1 17 2 31q9 11 17 26v23q-15 -5 -25 -16zM339 382
q-44 -128 -104 -243q15 -29 26 -56q4 2 9 1q36 -65 79 -123q7 5 13 12q-4 11 -2 23q-47 68 -95 134q-2 11 -2 21q60 129 113 263h-11q-15 -12 -26 -32z"/>
            <glyph glyph-name="uni300B" unicode="&#x300b;"
                   d="M29 361q3 -17 0 -36q25 -38 59 -73q0 -7 -3 -13q8 -3 13 -12q0 -11 3 -22q-5 -8 -13 -13q-27 -79 -59 -155q-1 -11 0 -24q-9 -9 -15 -22q0 -8 2 -16q12 6 26 11q15 41 26 83q2 5 9 3q28 87 65 166q-45 68 -94 128q-12 1 -19 -5zM135 392q5 -8 3 -23q21 -24 48 -44
q17 -30 33 -61h12q-6 -19 1 -43q-26 -41 -50 -87q-16 -55 -34 -110q-21 -26 -32 -58q6 -7 21 -6q2 8 11 7q21 47 41 93v22q43 83 85 171q-49 63 -87 131q-17 19 -35 31q-10 -9 -17 -23z"/>
            <glyph glyph-name="uni3010" unicode="&#x3010;"
                   d="M313 418q-50 -4 -105 2q-7 -3 -14 -8q-23 6 -47 4q-20 -7 -35 -20q8 0 13 -6q0 -10 -6 -17q6 -5 12 -12q-5 -55 -6 -116q6 -12 12 -28q-6 -8 -18 -14q8 -13 12 -29q-7 -70 -12 -141q12 -5 9 -21q-13 -6 -9 -23q13 -5 22 -14q22 0 41 14q9 -5 21 -8q47 16 102 22
q8 8 13 20q-21 12 -42 17q0 44 -1 99q-12 8 -16 18l34 104q-9 2 -9 9q16 12 27 13q-4 19 -6 38q16 12 31 26v18q8 4 18 2q10 15 24 26q10 -1 16 3q-9 4 -6 13q9 5 13 12q-16 10 -35 15q-26 -10 -53 -18z"/>
            <glyph glyph-name="uni3011" unicode="&#x3011;"
                   d="M266 425q-52 -1 -101 6q-20 -8 -41 -12q-4 -15 -9 -25q11 -7 16 -20h35q26 -27 59 -55q-4 -1 -6 -4q9 -4 18 -13q-9 -5 -6 -18l13 -9q-10 -5 -6 -19q8 -1 12 -8q-14 -17 -19 -41q6 -2 13 -7q-9 -13 -13 -28q10 -3 7 -17q-8 -8 -13 -14q3 -11 6 -24q-8 2 -17 3
q-2 -11 5 -20q-11 -3 -18 -9v-21q-20 -17 -30 -42q-25 -7 -47 -23q1 -11 -7 -16q12 -4 20 -14q104 12 207 23q17 12 28 22q-6 8 6 27q-7 2 -12 6q5 46 0 99q5 16 12 31q0 22 -6 38q6 18 12 35v50q4 2 7 4q-5 56 6 102l-16 11q-44 11 -89 13q-13 -7 -26 -11z"/>
            <glyph glyph-name="uni4E00" unicode="&#x4e00;"
                   d="M279 229q-40 -11 -83 -18q-1 4 -3 5q-7 0 -8 -6q-34 -3 -71 -9q-10 4 -19 6q-7 -4 -5 -12q5 -8 14 -17q29 0 56 -4q5 6 12 9q76 10 162 28q2 -4 7 -5q13 7 25 9q14 -1 34 2q6 -6 14 -9q10 5 10 18l-10 10q-71 0 -135 -7z"/>
            <glyph glyph-name="uni4E0E" unicode="&#x4e0e;"
                   d="M193 131q-39 2 -78 -4q-1 -5 -6 -5q0 -7 5 -13q34 1 69 0q49 11 101 19q24 0 51 -7q9 6 11 16q-18 13 -36 17q-60 -9 -117 -23zM235 427q-11 -2 -16 -17q7 -8 16 -15q0 -7 1 -16q-2 -2 -5 -2q-4 -23 -8 -48q-13 -9 -17 -25q5 -5 11 -12q-4 -20 -10 -40q2 -36 -1 -81
q5 -7 14 -8q7 18 17 35q37 16 74 21q31 3 57 0q5 -13 16 -21q-10 -53 -24 -107q-18 -36 -36 -70q-8 -7 -15 -14q-35 22 -64 47q-4 -4 -3 -11q27 -36 60 -59q13 -1 23 4q18 31 37 59q13 43 30 78q4 37 12 74q-12 25 -32 44q-11 -1 -25 4q-53 -6 -105 -17q0 -3 -3 -6
q-5 7 -8 14q6 20 4 43q7 11 16 22q38 9 74 9l5 -5q11 7 27 5q2 9 2 19q-5 5 -11 7q-9 1 -17 -2q-2 4 -2 8q-18 -2 -32 -13q-27 2 -47 -7q-5 3 -3 9q4 3 7 7q-6 11 0 23q4 2 6 4l-6 6q6 14 13 26q-2 10 -8 16q-9 4 -19 4q-2 8 -5 8z"/>
            <glyph glyph-name="uni4E2A" unicode="&#x4e2a;"
                   d="M221 286q-3 -20 -4 -41q7 -12 6 -31l-4 -48q0 -24 10 -47q0 -50 -6 -94q6 -17 12 -33q10 -2 15 5q-5 129 -9 253q-2 12 4 20q-3 15 -10 24q-4 -9 -14 -8zM210 420v-10q9 -4 12 -14q-12 -29 -32 -52q3 -3 3 -9q-26 -32 -41 -71q-22 -22 -39 -51q-14 -14 -28 -25
q-2 9 -10 10q-12 -14 -13 -35q16 5 31 13q43 43 77 88q3 13 12 23q4 -3 10 -2q-4 4 -9 5q6 14 16 19v10q6 12 17 18q2 6 2 13q3 5 8 4q7 -6 13 -14q8 2 21 -7q5 -4 4 -12q3 4 7 2v-15q2 4 5 6q31 -21 50 -50h9q17 -10 29 -25h12q16 -14 18 -13q4 -7 21 -6q10 -12 23 -19
q6 1 12 3q0 10 -6 16q-43 31 -83 58q-7 2 -13 1q-19 13 -27 32q-49 31 -89 63q6 9 18 23q-3 11 -12 16q-16 6 -28 7z"/>
            <glyph glyph-name="uni4E3A" unicode="&#x4e3a;"
                   d="M268 384q-3 -39 -12 -78q-10 2 -18 -1q-27 15 -45 24q-8 -1 -12 -6v-10q13 -12 28 -17q1 -3 1 -8q17 -7 38 -9q3 -8 -3 -17q-29 -5 -59 -15q-10 -3 -11 -13l8 -8q25 7 50 9q1 -11 -1 -25q-25 -43 -51 -81q-23 -24 -46 -44q-13 -1 -23 -7q0 -6 1 -13q7 -1 12 -9q9 6 21 9
q20 15 41 36q14 23 34 45q12 28 27 52h7q19 -19 39 -36q3 -8 7 -18q11 -1 18 -9l12 16q-9 6 -9 15q-32 27 -61 50q-2 10 -1 20q4 10 13 15q26 7 56 0q-1 4 3 5q21 3 39 -5q3 -8 2 -18q-10 -25 -24 -47q3 -2 3 -6q-29 -62 -52 -127h-6q-11 23 -23 43q-2 18 -8 33q-5 3 -10 3
q-3 -4 -5 -7q2 -16 4 -34q3 -5 7 -10q-1 -4 -3 -8q5 -5 12 -14q0 -9 4 -19q8 -11 21 -21h7q11 11 20 25q7 32 25 56q0 12 3 22q25 60 52 112v13q-18 24 -36 35q-47 -7 -93 -10q9 57 29 103q-9 5 -13 13q-12 3 -19 -4z"/>
            <glyph glyph-name="uni4E86" unicode="&#x4e86;"
                   d="M204 352q-15 -12 -35 -13q-10 -6 -8 -18q4 -5 10 -9q42 12 81 28q20 0 38 4q13 -4 27 -10q-19 -23 -39 -44q-7 -1 -11 -4q-4 4 -6 7q-12 3 -19 -7q-1 -9 1 -18q8 -5 15 -12q-1 -21 10 -38q4 -46 3 -96q-3 -2 -5 -4q-1 -8 4 -12q-1 -17 -6 -33q-25 14 -47 28q-8 2 -13 -3
v-10q24 -18 42 -38q10 -4 21 -10q2 4 7 3q13 33 21 67q-1 42 0 80q-11 39 -14 78q31 24 60 51q3 12 12 21v18q-24 11 -48 12q-54 -7 -101 -18z"/>
            <glyph glyph-name="uni4EBA" unicode="&#x4eba;"
                   d="M200 335q8 -8 20 -17q-11 -22 -16 -47q-10 -11 -15 -20q-4 -17 -9 -33q-9 -3 -12 -12q-7 -23 -17 -47q-28 -42 -59 -76q-11 -1 -18 -12q1 -8 8 -15q12 4 24 7q37 38 67 81q11 32 26 64q39 -36 85 -76q7 -4 18 -5q5 -3 6 -9h11q10 -10 35 -30q24 -7 45 -13q9 2 20 2
q8 -11 20 -9q-1 15 -9 26q-27 12 -55 18q-36 26 -72 39q-35 29 -71 61q-11 2 -19 9q1 18 3 29q17 27 29 59q7 5 13 12v16q-3 7 -7 9q-20 3 -35 0q-7 7 -13 9q-6 -7 -3 -20z"/>
            <glyph glyph-name="uni4F19" unicode="&#x4f19;"
                   d="M141 332q-16 -30 -25 -62q-13 -14 -24 -27q-2 -6 -1 -13q-16 -21 -28 -46q-8 -4 -15 -10v-11q4 -6 13 -5q9 11 19 18q12 27 30 48q3 -3 6 -8q0 -70 7 -133q5 -9 16 -9q0 65 -2 132q-9 24 -9 52q10 26 23 45q3 13 4 26q-6 7 -14 3zM257 330q4 -32 0 -61q-3 -2 -7 -2
q-2 -11 -6 -22q-7 13 -9 28q-10 11 -25 10q-4 -9 0 -20q8 -7 13 -18q1 -13 2 -27q-5 -5 -6 -14q2 -12 4 -28q7 2 12 -3q-7 -15 -14 -31q-30 -26 -60 -51q-1 -7 7 -11q17 4 33 11q18 20 37 36q10 24 27 38q45 -27 92 -60q28 -10 53 -25q13 -1 33 0q7 -6 15 -9q6 6 5 17
q-8 4 -12 10q-19 6 -32 6q-36 18 -67 32q-40 29 -80 54q-2 8 3 12q6 -4 15 -3q29 36 48 76q0 14 1 26q-6 7 -10 14l-15 5q-15 -12 -30 -15q-5 9 -3 19q-5 10 -12 14q-9 1 -12 -8zM312 291q3 -3 2 -8q-14 -32 -33 -60q-4 23 0 50q7 7 15 16q8 0 16 2z"/>
            <glyph glyph-name="uni4F1A" unicode="&#x4f1a;"
                   d="M201 229h-13q-5 -8 -8 -18q5 -5 12 -8q15 6 28 7q-9 -9 -20 -14q0 -5 -2 -10q-25 -19 -48 -38q-5 -7 -6 -16q3 -7 9 -11q29 6 58 13q-2 -5 -3 -14q-24 -32 -51 -63v-8q5 -3 11 -7q6 0 12 2q5 5 8 11q14 3 26 10q28 4 51 1q12 4 24 9q3 -4 9 -4q5 -10 10 -21q7 -7 20 -6
q4 4 3 10q-27 33 -57 69h-10q-5 -4 -3 -12q9 -8 18 -18q-23 -3 -50 -2q-9 -3 -17 -8q-5 2 -4 6q17 25 36 51q21 12 47 15q11 11 23 16q-4 12 -14 20l-98 -34q-3 4 -4 7q26 26 55 48q10 15 19 29q-6 8 -10 15q-32 -11 -61 -27zM216 366q-2 -9 0 -19q-5 -2 -9 -2q-4 -8 -4 -20
q-13 -17 -23 -32q0 -10 -3 -19q-36 -46 -71 -88q-15 -10 -30 -22q-15 3 -24 -8v-10q6 -3 14 -9q20 5 39 19q34 35 71 72q21 46 48 89q14 -5 26 -12q37 -35 76 -75q24 -16 51 -32q8 -8 16 -17q29 -15 60 -26q6 7 7 15q-23 16 -45 25q-25 21 -46 38q-18 12 -37 19
q-38 37 -77 77q-7 1 -12 5q2 12 13 16q-5 8 -7 15q-18 4 -33 1z"/>
            <glyph glyph-name="uni4F34" unicode="&#x4f34;"
                   d="M173 358q-12 -44 -33 -84q-26 -37 -52 -69q-1 -8 2 -15l12 2q30 33 49 72q4 6 11 7q5 -21 10 -41q3 -68 6 -141q2 -5 7 -10q5 0 9 2q5 30 3 64q-4 68 -13 132q-6 10 -12 18q8 26 19 48q3 13 -6 21q-7 0 -12 -6zM305 431q-5 -8 -4 -19q5 -6 9 -15q1 -21 7 -42
q-14 -11 -29 -16q-4 15 -11 25q-6 1 -10 3q-5 -4 -10 -6q10 -22 24 -46q7 2 13 0q11 8 20 16q6 -9 4 -23q-46 -25 -86 -55q3 -5 7 -11h12q32 20 67 40v-33q-18 -12 -30 -26q-23 -13 -47 -22q-10 -5 -10 -15q11 -8 26 -7q26 16 57 25q5 -73 10 -147q3 -5 6 -11q1 -35 -6 -67
q4 -3 12 -3q12 24 19 49q-9 62 -16 123q1 37 0 63q14 4 27 10q26 4 52 6q3 6 7 12q-4 6 -7 12q-11 1 -22 0q-7 -4 -14 -7q-23 -2 -32 1q21 17 38 41q1 13 1 25q-5 5 -7 8q-10 0 -18 3q11 18 17 41q-3 4 -5 7q-22 2 -40 -3q-7 33 -19 60q-6 7 -12 4zM365 296q-1 -3 -1 -9
q-12 -10 -23 -23q-4 14 -2 27q13 4 26 5zM346 349q4 -1 5 -6q-7 -7 -12 -13q-4 7 -2 15q5 1 9 4z"/>
            <glyph glyph-name="uni4F4D" unicode="&#x4f4d;"
                   d="M291 136q-17 -4 -32 -12q-30 0 -54 -6q-5 -10 4 -18q21 -1 43 0q30 6 57 15q50 -1 98 4q21 -6 41 -14q7 0 14 3q5 9 0 19q-24 8 -47 12q-62 2 -124 -3zM326 242q3 -16 0 -32q-18 -24 -42 -49q-2 11 -8 19q3 3 3 7l-7 7q-2 18 -5 34q-9 10 -19 2q1 -40 8 -82q4 -7 11 -11
q16 2 29 7q10 14 25 21q13 23 29 41q-2 12 3 19q-4 13 -13 22q-11 2 -14 -5zM122 353q9 -15 23 -24q-3 -16 -7 -31q-4 -1 -7 -4q-3 -13 -6 -25q-28 -46 -62 -95q-12 -2 -18 -10q1 -6 2 -14q9 -1 19 -1q12 12 25 22q16 29 34 58q7 -48 12 -97q2 -39 -6 -76q5 -4 11 -10
q13 8 16 22v102q-7 30 -9 66q-7 6 -12 16q22 42 41 85q1 8 -5 12h-16q-6 9 -16 12h-13q-2 -3 -6 -8zM256 359q-1 -7 3 -13q15 -12 35 -16q-8 -6 -15 -16q2 -7 10 -7q-3 -3 -7 -8q-21 -6 -40 -13q-12 1 -22 3q-8 -7 -8 -17q3 -3 7 -9q10 -1 22 -1q40 15 80 34q6 1 7 -3
q-7 -3 -9 -11q0 -2 3 -4q29 1 54 10q5 6 6 15q-9 8 -14 16q-14 4 -28 3q-14 -4 -25 -7q0 6 6 9q0 12 -5 21q-23 10 -43 16q-10 4 -17 -2z"/>
            <glyph glyph-name="uni5143" unicode="&#x5143;"
                   d="M269 258q-63 -26 -124 -48q-21 -6 -44 -9q-4 -3 -7 -8q-17 2 -32 5q-9 -2 -9 -12q3 -9 10 -14h36q45 18 90 31q-3 -8 -3 -22q-15 -30 -32 -60q-5 -18 -9 -37l-11 -11q-7 -15 0 -30q10 -1 18 5q26 71 59 140q-3 16 6 27q16 8 30 10l-2 -138q8 -9 14 -22q15 -9 30 -19
q29 0 60 -3q2 -3 7 -6q35 2 71 3q19 8 33 20q-5 5 -8 9q-8 44 -12 88q-5 7 -10 0q1 -44 4 -87q-7 -4 -13 -9q-19 2 -31 -4q-51 7 -100 12q-13 13 -25 24q3 62 6 129q-3 5 -6 9q7 5 17 9q15 1 30 3q16 -12 28 -28q10 2 21 4q7 6 13 11q-8 8 -15 16q-14 2 -27 5q-3 6 -8 10
q-26 3 -55 -3zM246 364q-38 -16 -76 -30q-11 0 -21 -1q-6 -5 -4 -15q9 -5 21 -5q50 15 99 31q-4 -10 -16 -11q-8 -7 -8 -18q23 8 48 16q2 4 2 8q17 3 23 17q-10 8 -12 17q-28 -4 -56 -9z"/>
            <glyph glyph-name="uni5168" unicode="&#x5168;"
                   d="M243 243q-40 -12 -74 -28q-2 -7 3 -12q32 4 62 13q-3 -31 -3 -67q-6 -4 -8 -9q-20 -4 -39 -10q-8 -5 -6 -15q3 -4 10 -3q11 -30 16 -63q-36 -11 -71 -25v-11q8 -4 19 -5l7 7q28 8 60 13q5 -5 13 -7q4 6 8 10q30 -1 60 4q34 -7 65 -19q6 6 7 16q-24 11 -46 23
q-47 -2 -82 0q0 20 5 39q21 16 35 37q1 9 1 17q-5 3 -7 7q-17 -1 -30 2q1 28 4 53q19 5 38 21q-2 9 -5 16q-22 -1 -42 -4zM227 78q1 -5 1 -12q-10 -2 -9 8q2 5 8 4zM227 121q1 -9 1 -18q-5 -7 -13 -8q-9 7 -9 19q9 7 21 7zM256 132q1 -3 1 -7q-4 -3 -8 -2q1 5 7 9zM243 397
q-18 -29 -36 -64q-20 -27 -40 -47q-3 -7 -5 -15q-39 -45 -81 -87q-13 -5 -23 -14q-7 5 -15 2q-3 -13 4 -22q27 8 47 16q10 13 23 27q5 2 10 3q36 48 73 91q2 11 7 19q10 12 23 23q48 -46 91 -91q11 -3 22 -10q2 -6 9 -12q47 -18 93 -38q7 -8 17 -18q5 2 10 6v11
q-19 16 -36 28q-34 10 -63 22q-55 42 -105 89q-15 19 -29 35q13 20 16 45q-6 6 -12 1z"/>
            <glyph glyph-name="uni5171" unicode="&#x5171;"
                   d="M296 118q1 -8 6 -16q17 -15 37 -21q26 -20 45 -41q6 -9 4 -21q7 -8 22 -7q6 7 10 15q-20 23 -33 45q-31 24 -54 37h-10q-7 8 -12 18q-11 0 -15 -9zM212 127q-24 -35 -52 -65q-14 -2 -19 -15q1 -9 9 -16q10 4 22 6q22 26 39 56q16 16 34 32q1 8 -5 11q-15 -2 -28 -9z
M279 382q8 -3 15 -8q-1 -16 -2 -33q-3 -3 -7 -5q3 -21 -2 -42q-17 -9 -35 -17h-24q-4 25 -8 49q-7 9 -12 17q-8 1 -10 3l-6 -6q10 -36 17 -71q-14 -4 -29 -8q-20 0 -42 4q-11 -6 -9 -19q11 -5 23 -9q31 5 56 7q-2 -29 -2 -60q4 -4 6 -10q-10 -5 -17 -13q-33 -4 -58 -18
q-15 2 -32 0q-8 -6 -5 -16q4 -5 10 -8h27q24 12 50 14q23 12 46 23q17 4 33 2q6 4 9 10q30 18 63 22q6 -4 5 -12q13 -3 32 0q1 5 7 7q-2 13 -8 22q-15 0 -24 7q-32 -8 -58 -14q10 37 16 74q27 1 59 -1q5 7 8 14q-4 13 -16 22q-24 0 -45 -9q-2 43 6 76q-7 13 -15 23h-12
q-11 -5 -10 -17zM277 269q0 -19 -1 -45q-9 -13 -10 -31q-5 -3 -10 -7q-15 2 -26 -2q-4 30 -6 65q27 12 53 20z"/>
            <glyph glyph-name="uni51B0" unicode="&#x51b0;"
                   d="M112 279q0 -9 4 -17q21 -10 40 -27q1 -11 0 -24q2 -4 8 -6q6 15 10 31q-12 9 -15 24q-15 2 -26 10q-6 7 -11 14q-7 1 -10 -5zM294 354q7 -55 6 -116q-22 -28 -47 -56q-1 24 -9 46q-15 7 -29 8q-2 -6 -8 -7q-3 5 -4 9q-14 -11 -26 -22q-27 -50 -51 -95q3 13 -3 23
q-12 -14 -13 -33q1 -15 2 -31q5 -7 8 -17q6 -1 11 4v19q13 22 17 48q18 33 38 64q14 -2 24 1v8q9 -1 20 3q2 -4 6 -9q-6 -12 -4 -29q-9 -9 -15 -20v-11q-5 -11 -14 -18q-1 -12 6 -21q3 -1 8 -1q15 23 33 42q11 -18 15 -42q19 -26 36 -50q5 -1 9 3q-2 77 8 146q16 -17 30 -37
q8 -1 17 1q9 -8 18 -18q-15 -21 -29 -43q-1 -6 1 -12q5 -3 15 -2q7 9 16 11q3 15 14 26q2 19 -2 37q-16 18 -34 28h-10q-13 12 -22 23q12 36 30 69q2 16 -6 26q-5 1 -7 -4q-2 -7 -1 -15q-10 -9 -15 -21q-12 -1 -17 -10q-2 45 -6 89q-4 7 -9 12q-4 -2 -7 -6zM302 210
q-4 -35 -2 -68q-3 -1 -6 -1q5 -25 -4 -45q-19 26 -30 56v11q4 6 12 8q3 7 4 15q14 15 26 24z"/>
            <glyph glyph-name="uni51CC" unicode="&#x51cc;"
                   d="M137 228q-26 -52 -51 -111q-2 20 -4 38q-6 -9 -12 -22q3 -33 11 -65q5 -4 12 -5q6 21 9 45q20 61 46 120q-6 4 -11 0zM61 256q21 -4 34 -18q2 4 7 5q0 11 -5 19q-17 4 -35 6q-3 -4 -1 -12zM253 386q-3 -21 -7 -39q-17 -7 -33 -5q0 -7 7 -11q16 -1 25 -5q-1 -23 -5 -44
q-26 -8 -48 -23q-9 0 -17 -1q-3 -6 -2 -15q6 -5 13 -12q10 2 21 2q-6 -14 -11 -27q-27 -32 -54 -60v-10q4 -7 11 -9q27 28 49 52q3 -12 10 -24q-5 -7 -9 -14q1 -10 11 -15q5 7 11 12q13 -3 20 -13q-14 -16 -28 -31q-6 -1 -11 -2q-6 -7 -15 -16q-13 -4 -25 -9q-7 5 -16 4v-9
q10 -11 25 -15q13 8 28 13q29 21 54 43q8 1 17 -3q6 -5 9 -15q35 -16 69 -38q48 -17 97 -29q4 4 3 9q-18 12 -33 19q-6 1 -10 -2q-31 19 -63 31q-9 7 -18 17q-6 1 -11 2q-21 17 -39 32q8 22 13 42q9 13 23 16v16q-8 7 -17 9q-25 -1 -43 -13q2 18 16 33q-6 8 -14 8
q-21 -32 -37 -66q-5 10 -13 12q10 27 26 55q16 12 25 24q13 -9 25 -18h16q36 -14 68 -31q5 4 13 5q-5 8 -9 16q-47 15 -84 36q21 9 47 18q-1 7 -2 12q-11 5 -25 3q-22 -12 -45 -16q-4 21 3 45q23 8 50 22v7q-9 11 -23 11q-6 9 -15 17q-7 3 -14 4q-5 -2 -9 -7zM269 185
q5 2 8 -3q-8 -18 -17 -38q-17 4 -19 19q13 13 28 22zM274 376q9 -8 12 -18q-8 -5 -17 -5q-4 -1 -1 17q1 6 6 6z"/>
            <glyph glyph-name="uni51FB" unicode="&#x51fb;"
                   d="M255 352q1 -25 6 -50q-19 -4 -32 -8q-13 0 -23 2q-7 -5 -8 -15q11 -6 21 -11q20 2 41 4q-2 -17 0 -31q-4 0 -7 -4q8 -8 -1 -20q-27 -5 -55 -15h-29q-10 -3 -19 -8h-26q-10 -3 -9 -14q4 -7 11 -9q46 3 91 9q18 9 37 11q1 -30 2 -64q-5 -12 -7 -27q-15 -5 -32 -10
q-9 2 -11 10q1 9 8 12q-2 5 -3 9q4 9 9 20q-1 7 -5 12q-6 2 -12 2q-18 -50 -29 -81q1 -8 2 -17q4 -1 14 -3q22 7 47 12q11 -9 26 -10q6 17 21 29q4 -1 9 -1q17 7 31 19q7 1 16 -7q0 -27 10 -49q5 6 14 14q-1 26 0 51q-9 45 -20 86q-6 1 -8 4q-4 -4 -9 -11q-1 -26 6 -50
q-3 -6 -6 -13q-19 -5 -36 -16q-8 0 -11 5q-4 38 0 79q24 15 50 24q30 -4 62 -10l9 9q0 9 -3 14q-14 1 -21 11q-16 -3 -34 0q-28 -10 -56 -16q-1 5 -5 6q4 17 2 32q6 8 12 15q17 3 36 0q10 10 9 24q-3 3 -5 7q-10 -4 -21 -3q-3 5 -5 6q0 -3 -3 -6q-9 1 -15 -1q-7 11 -6 26
q-8 12 -18 25q-8 -1 -12 -9z"/>
            <glyph glyph-name="uni53D6" unicode="&#x53d6;"
                   d="M173 357q-7 1 -13 3q-34 -8 -59 -14q-21 -3 -39 2q-7 -1 -8 -9q1 -5 5 -10q8 0 16 -5q36 3 75 9q12 -6 19 -19q-1 -54 -2 -105q-4 -3 -9 -3q1 16 -8 26q5 13 5 27q-7 15 -21 17q-7 15 -6 34q-4 9 -13 11q-4 -5 -7 -11q1 -10 1 -21q-4 -4 -8 -7q-1 -12 8 -19
q-2 -24 -1 -49q-8 2 -12 -5q-2 -9 6 -15q-7 -21 -1 -42q-14 -16 -32 -32q-4 -5 -4 -13q4 -4 10 -8q8 1 17 3q26 37 64 72h7q4 -54 -3 -105q-8 16 -17 28q-5 1 -9 1q0 -8 1 -17q9 -19 20 -35q8 -4 15 -13h13q-2 36 2 66q18 -1 34 3q14 12 32 15q15 22 36 31q17 -22 46 -41
q41 -18 82 -37q19 0 38 -6q5 4 4 10l-14 14q-9 3 -18 2q-47 24 -95 45q-21 16 -34 34q17 67 40 129q-12 10 -26 12l-14 -14q-21 -2 -43 -16q-6 -6 -11 -13q-11 -1 -20 -6v-9q4 -7 13 -6q18 11 36 25q17 6 29 3q-5 -42 -17 -82q-35 25 -74 43q-8 -6 -3 -17q-12 0 -20 5
q5 62 -4 116q26 11 55 17q8 -4 21 -4q4 7 3 17q-6 5 -12 9q-42 -4 -76 -21zM139 193q1 -3 1 -7q-8 -5 -15 -10q-1 6 1 13q5 6 13 4zM209 218q12 -14 36 -23q15 -13 22 -26q-16 -22 -39 -38q-20 -4 -38 -14q-4 3 -7 6v69q6 7 11 14q7 -1 13 3q-5 5 2 9zM129 256q5 0 9 -5
q-1 -10 -9 -13q-4 10 0 18z"/>
            <glyph glyph-name="uni53F7" unicode="&#x53f7;"
                   d="M313 405q-21 -8 -39 -11q-3 2 -3 5q-16 -15 -38 -22v-9q-5 5 -13 12q-21 -3 -40 -5q-3 -5 -4 -8l10 -10h17q0 -6 -2 -17q4 -3 8 -10l-5 -5q9 -43 15 -82q-3 -4 -6 -9q-46 -10 -90 -16q-9 -6 -6 -19q11 0 21 -5q21 5 43 15q9 0 18 -3q2 5 7 9q21 3 42 3q-1 -9 -6 -18
q1 -5 4 -10q-5 -5 -7 -11q-1 -4 3 -7q-4 -6 -9 -10q-4 -18 2 -35h8q12 22 26 29q20 9 37 18q11 2 28 2q3 -9 11 -14q-2 -20 -1 -42q-15 -30 -27 -64q-10 -12 -21 -23q-16 8 -30 11q-19 19 -44 32q-5 -5 -3 -13q14 -19 35 -39q20 -10 40 -21q5 5 14 8q24 37 46 77q7 34 16 68
q-5 19 -16 33q-10 7 -19 12q-30 -10 -67 -18q1 23 4 50q38 15 77 30q5 2 10 -2q-2 -3 -1 -8q8 -5 20 -4q10 6 21 13q-3 12 -9 21q-10 2 -19 1q-66 -18 -126 -34q-2 8 -1 17q14 7 26 17q16 3 32 8q2 5 7 8v19q12 14 25 25q15 22 23 46q-4 6 -6 12q-19 5 -38 3zM317 385
q8 0 13 -5q-2 -5 -8 -5q-1 -4 1 -8q-22 -28 -42 -52q-4 -1 -8 -1q-1 -3 1 -6q-18 -5 -34 -17q-7 16 -11 21q2 22 -4 44q25 13 49 25q22 0 43 4z"/>
            <glyph glyph-name="uni53F8" unicode="&#x53f8;"
                   d="M170 253q5 -51 13 -99q6 -17 12 -37h13q7 9 8 20q11 1 21 8q10 1 20 -3q8 9 17 15v25q3 12 9 21q0 22 -2 41q-6 4 -12 12q-34 -7 -71 -8q-7 6 -3 14q-7 7 -18 4q-5 -5 -7 -13zM260 229q3 -7 2 -17q-6 -25 -22 -43q-12 -1 -25 -4q-11 12 -17 24q-2 19 -3 35q31 5 65 5z
M157 290q-6 -5 -9 -13q7 -9 18 -10q4 5 11 10q25 10 52 15q-1 -5 1 -10q12 4 23 1q5 10 18 9q7 6 7 15q-10 9 -19 12h-31q-35 -13 -71 -29zM320 403q-10 -5 -20 -12q-38 -1 -80 -4l-8 -8q-16 -2 -31 -6q-4 -7 -4 -15q4 -6 10 -10q32 7 62 17q26 0 51 2q15 11 35 11
q1 -10 5 -18q2 -45 0 -92q-5 -29 -7 -61q3 -68 3 -141q-2 -17 -12 -29q-25 15 -47 30q1 4 0 8q-8 13 -18 15q-3 -8 0 -19q15 -23 32 -42q19 -14 47 -24q6 7 13 17q8 122 7 242q3 14 6 27q-1 36 0 76q-5 11 -7 22q-8 5 -14 14q-12 2 -23 0z"/>
            <glyph glyph-name="uni5403" unicode="&#x5403;"
                   d="M82 287q1 -29 10 -57q-5 -44 0 -91q7 -5 7 -15q5 -4 14 -5q6 7 12 15v14q8 10 20 12q30 41 54 88q-16 6 -25 17q-22 4 -42 -1l-28 -14q-5 23 -13 43q-6 0 -9 -6zM161 244q0 -3 4 -7q-19 -34 -37 -65q-6 -4 -13 -5q-8 35 1 67q21 10 45 10zM259 364q-1 -6 -5 -11
q3 -5 9 -10q-2 -6 -2 -14q-31 -51 -64 -103q-1 -6 -1 -13q2 -3 7 -3q11 9 21 18q20 40 48 75q16 3 35 3q-2 -9 -8 -18q-19 -17 -33 -36q-26 -18 -54 -40q-3 -4 -3 -10q7 -1 7 -9q15 0 30 1q20 12 45 16q-4 -13 -17 -22q-16 -37 -31 -72q0 -15 2 -34q5 -8 9 -17
q23 -10 47 -21q60 1 111 8q10 7 19 14q-2 9 -9 12q2 40 0 80q-5 2 -9 1q-2 -38 -4 -79q-6 -6 -13 -9q-28 2 -51 3q-5 -3 -11 -6q-17 -1 -34 0q-12 5 -24 9q-12 11 -14 25q6 19 13 37q23 42 54 88q-1 12 -6 19q-30 -5 -60 -21q-6 -1 -10 2q9 11 16 19q14 12 29 17
q25 23 41 48q-4 12 -6 23q-24 -5 -50 -4q4 10 4 24q-5 5 -8 10q-10 3 -20 0z"/>
            <glyph glyph-name="uni5458" unicode="&#x5458;"
                   d="M197 385l-12 -8q-19 3 -36 9q-5 -5 -7 -10q7 -11 21 -17q5 -10 8 -23q-2 -37 0 -81l-8 -2q-6 -7 -5 -18l6 -10q-4 -65 -4 -142q10 -4 11 -16q-8 -5 -14 -11q-14 -4 -29 -6q-11 8 -21 4v-11q13 -12 31 -15q8 5 20 4q8 8 21 15q19 26 38 50q2 16 8 29q5 6 13 7
q20 -19 39 -35q62 -34 119 -79h9q1 10 -2 19q-73 50 -140 96q8 2 16 -4q20 29 33 62q3 25 2 50q-3 17 -14 27q-24 -6 -49 -8q-25 -15 -54 -24q-4 23 -4 40h11q10 11 21 18q13 -5 29 0l32 26q0 15 -11 24q3 6 7 10q3 17 -3 31q-8 1 -10 5q-37 1 -72 -6zM225 229q3 -3 6 -7
q-7 -33 -13 -66q-16 -33 -33 -67q-8 23 -6 49q5 32 8 65q19 15 38 26zM295 246q3 -18 1 -39q-9 -25 -22 -50q-6 4 -9 9q-7 2 -10 -3q1 -16 8 -29q-12 7 -22 20q6 42 6 81q9 5 19 10q14 2 29 1zM260 374l4 -4q-5 -15 -13 -28q-27 -22 -55 -42q-5 -1 -6 2l5 5q-2 21 -5 38
q10 5 13 17q25 11 57 12z"/>
            <glyph glyph-name="uni56FD" unicode="&#x56fd;"
                   d="M189 266q-3 -5 -3 -12q18 -2 33 7q-2 -10 -4 -22q-19 -15 -26 -35q10 -4 25 -7q-5 -19 0 -38q-16 -10 -29 -21v-15q18 3 32 15q2 -4 9 -3q3 5 10 9q16 6 38 0q7 12 17 20q-5 17 0 33q-13 13 -23 25q-10 -4 -12 -16q8 -9 12 -21l-6 -10q-11 0 -23 -7q-1 22 0 45
q15 14 32 25q3 11 -4 18q-15 -2 -24 -15q-2 3 -1 6q22 19 35 38v10q-8 0 -9 5q-42 -11 -79 -34zM134 302q1 -128 1 -252q8 -2 15 -8q6 12 12 22q-2 14 -3 24q8 21 10 44q-6 4 -13 5v145q10 12 16 24q-9 11 -24 10q-10 -4 -14 -14zM281 363q-31 1 -64 -4q-13 -6 -21 -14
q-2 -5 -3 -11q4 -4 10 -6q7 4 14 7q53 0 98 9q2 7 8 7q11 -15 20 -33q-2 -16 5 -27q1 -15 -5 -27q4 -66 5 -135q2 -8 7 -16q-1 -18 0 -34q-6 -4 -13 -8q-4 7 -11 11q2 7 7 13q-12 9 -24 19q-30 6 -55 2q-18 -8 -38 -16q-3 4 -5 5q-7 -4 -15 -5q-7 -6 -10 -14q15 -7 35 -7
q14 6 26 11q20 1 42 -2q7 -10 13 -22q4 1 9 0q9 -13 22 -24q11 -4 23 -7q8 10 15 21q0 18 3 34q-4 2 -6 4q1 17 6 29q-4 16 -6 33q-4 79 -1 158q-8 7 -5 20q-13 25 -29 42q-31 -2 -57 -13z"/>
            <glyph glyph-name="uni571F" unicode="&#x571f;"
                   d="M222 347q-5 -6 -4 -15q2 -7 11 -8q6 -30 5 -63q-30 -4 -55 -1q-8 -4 -7 -14q3 -6 10 -11q27 -1 50 -4q-1 -46 -2 -93q-9 -5 -16 -10h-21q-32 -11 -63 -23q-24 0 -42 -2q0 -4 -1 -8q7 -5 15 -10q58 7 109 21q3 -1 6 -5q52 4 108 -1q3 -4 9 -8q9 1 18 -1q27 -13 52 -31
q13 3 21 14q-4 4 -3 9q-19 13 -38 25q-11 2 -21 1q-18 10 -36 16q-42 0 -76 7q-1 53 3 105q20 10 44 14q9 -5 18 -9q12 -1 26 0q3 7 4 13q-3 6 -5 11q-11 6 -24 12q-30 -10 -61 -13q0 36 2 72q-4 4 -5 8q-18 5 -31 2z"/>
            <glyph glyph-name="uni5728" unicode="&#x5728;"
                   d="M207 423q5 -31 0 -65q-8 -18 -13 -38q-16 -6 -32 -10q-20 7 -39 0q2 -5 4 -12q6 -5 13 -8q22 2 41 -5q-2 -15 -5 -29q-33 -71 -74 -142q-21 -19 -39 -38q-8 2 -12 -4q3 -5 8 -8h13q9 6 20 13q38 49 64 99q5 4 10 4q2 -18 7 -36q2 -66 0 -141q4 -14 17 -21q3 6 6 8
q-1 34 -3 67q8 3 15 7q14 -1 39 2q42 15 94 29q55 -3 105 -18q9 3 16 8q-1 12 -10 19q-53 12 -100 18q-34 -10 -71 -16q1 33 12 63q-6 12 -3 22q21 6 45 7q7 8 10 18q-6 3 -8 7q-26 0 -47 -6q-2 16 -2 36q-4 9 -13 10q-7 -4 -7 -12q5 -20 4 -42q-30 -11 -53 -19
q-4 -5 -3 -12q4 -4 8 -9q13 5 26 11q10 3 20 0q-3 -42 -11 -82q-26 -9 -55 -13q-7 4 -11 12q-3 66 -13 126q9 16 16 30q2 12 4 23q6 9 16 19q36 9 74 16q5 8 15 9q2 -1 2 -5q5 4 14 8q12 -4 25 -8q7 7 5 17q-5 11 -15 15q-59 -12 -116 -25q2 11 2 25q3 6 8 10q-5 33 -8 66
q-4 5 -9 5q-4 -1 -6 -5z"/>
            <glyph glyph-name="uni58D5" unicode="&#x58d5;"
                   d="M192 221q-2 -36 -4 -77q10 -6 21 3q1 21 -2 42l5 5q-1 20 1 38q-4 8 -9 8q-10 -7 -12 -19zM268 314q-7 6 -10 14h-19q-1 -13 7 -24q-5 -30 -3 -71q-4 -4 -8 -9q9 -3 13 -12q-9 -6 -6 -20q14 1 29 5q-15 -30 -32 -59q-26 -17 -54 -34q1 -7 9 -9q16 2 29 12q3 -2 3 -7
q-12 -6 -16 -21q14 4 31 12q15 20 33 38q-3 -15 -8 -31q-19 -27 -39 -48q-5 0 -10 -1q-9 -10 0 -20q22 9 41 25q22 32 35 71h20q1 -5 6 -9q-3 -32 -2 -66q-6 -21 -15 -42l-16 2q-18 13 -24 32q-5 1 -7 -2v-20q8 -7 11 -18q14 -8 27 -18h16q11 20 20 39q5 42 7 84q2 6 6 10
q8 0 17 -1q35 -19 70 -40h14q3 4 2 8q-11 8 -12 18q-40 18 -74 38q-17 1 -30 8q-3 8 -3 15q25 18 44 41v18l-7 7q13 22 24 46q-7 6 -9 12q-33 -1 -56 -7q5 7 4 15q14 15 22 27q-1 13 -10 19q-39 -7 -70 -27zM282 170q4 -5 10 -11q-2 -4 -8 -3q-6 8 -2 14zM352 221
q-3 -10 -9 -20q-15 -13 -31 -27q-11 3 -19 11v10q30 20 59 26zM361 267q1 -3 1 -7l-12 -12q-17 4 -33 0q-28 -16 -52 -28v8q17 11 34 21q30 14 62 18zM311 313q2 -1 2 -4q-22 -22 -41 -40q-2 -8 3 -17l-6 -4q-3 23 -4 43q18 18 46 22zM110 338q3 -7 7 -15q-3 -17 -4 -45
q-19 -12 -42 -16q-5 -4 -5 -11q5 0 9 -6q15 3 31 4q6 -51 2 -113q-16 -23 -27 -51q2 -8 11 -9q11 13 21 25q6 20 16 40q25 35 45 71q-2 6 -8 4q-16 -20 -33 -40q-2 24 -4 52q4 16 5 34q8 8 13 17q1 16 2 28q-7 0 -12 3q0 20 -8 38q-12 1 -19 -10zM256 422q-2 -4 0 -10
q15 -13 32 -26q-4 -7 -4 -16q-18 -7 -36 -13q-21 0 -41 -1q-9 -8 -6 -22q15 -4 33 -4q24 9 48 19q28 5 57 12q4 -4 4 -11q8 -1 19 -1q9 4 18 9q-3 11 -9 21q-31 5 -61 -1q-9 -6 3 10q-3 12 -11 19q-21 4 -37 18q-6 1 -9 -3z"/>
            <glyph glyph-name="uni5929" unicode="&#x5929;"
                   d="M205 315q6 -34 3 -72q-6 -6 -5 -16q-32 -7 -59 -20q-22 1 -46 -2q-9 5 -15 11q-5 -6 -12 -5q-3 -7 -2 -16q7 -5 12 -10q16 -2 29 -7q4 3 9 5q13 1 25 -2q-1 4 3 6q6 -1 13 -1q1 5 7 7q11 2 24 1q1 -5 1 -12q-22 -53 -50 -99q-19 -17 -39 -28q-8 0 -14 2q-7 -2 -9 -9
q3 -7 8 -11q7 0 15 -1q28 10 50 29q27 41 49 82q1 23 14 38q4 -2 10 -4q45 -41 82 -91q48 -26 99 -59q20 -5 37 -4v9q-32 18 -60 31q-36 25 -70 48q-42 52 -85 96l18 10q6 0 13 -2q2 5 6 9q5 2 8 -3l8 8h14q17 11 33 20q2 -4 8 -3q9 7 17 12q-2 11 -8 18q-19 -8 -36 -6
q-12 -7 -18 -16q-35 -13 -63 -18q1 35 0 75q-7 9 -12 15q-12 -2 -12 -15zM215 377q-32 -11 -64 -19v-15q5 -3 8 -6q34 7 68 16q-2 -3 -2 -10q5 -7 15 -6q13 11 24 18q6 -1 14 -2q13 5 22 13q0 8 -3 14q-41 4 -82 -3z"/>
            <glyph glyph-name="uni5B88" unicode="&#x5b88;"
                   d="M215 169q4 -9 13 -16v-10q10 -6 20 -14q9 0 17 2q2 9 0 17q-9 8 -18 11v7q-12 10 -26 14q-4 -4 -6 -11zM270 267q5 -16 17 -31q-53 -17 -109 -36q-2 -9 3 -17q16 2 31 0q0 6 5 9q25 6 50 16q13 0 19 -1q4 -85 0 -170q-21 6 -45 3q-9 6 -20 9q-5 -5 -3 -14q7 -12 20 -18
q31 2 55 -7q10 7 18 12q-5 36 0 70q-2 6 -5 11q0 63 4 116q18 0 42 2q1 7 7 9q-1 9 -6 16q-24 1 -42 -8q-11 10 -9 25q-11 8 -21 15q-8 -4 -11 -11zM122 225q-6 -3 -5 -9q4 -8 15 -18q5 4 10 6q0 51 -1 94q1 11 5 18q-9 7 -22 4q-3 -45 -2 -95zM261 313q-14 -1 -27 -1
q-5 -5 -10 -8q-5 3 -7 5q-11 -5 -23 -6q-12 -9 -11 -22q43 4 89 11q29 22 64 25q17 -5 35 -11q-6 -9 -13 -18q-9 -5 -19 -9q-10 -8 -14 -18l6 -6q15 2 31 9q19 17 32 34q1 10 3 19q-12 12 -25 17q-25 4 -51 4q-31 -10 -60 -25zM233 383q-1 -7 -6 -11q-13 -1 -22 -11
q-3 -4 -3 -10q27 5 54 13q9 -3 21 -2q2 3 5 5q-2 9 -2 17q-15 2 -25 13q-14 1 -26 4q-6 -9 4 -18z"/>
            <glyph glyph-name="uni5C0F" unicode="&#x5c0f;"
                   d="M322 239q-1 -7 2 -13q10 -8 18 -16q6 -1 14 -3q8 -8 17 -16q-3 -1 -3 -3q10 -5 23 -14q2 -14 15 -23q5 0 10 1q4 14 -1 30q-17 11 -25 28q-28 17 -58 37q-8 0 -12 -8zM118 189l-20 -20q-7 -12 -6 -28q6 0 11 -6q10 9 17 19q-1 9 2 15q22 31 42 59q2 10 4 19q-6 3 -12 3
q-23 -29 -38 -61zM217 422v-15q10 -10 25 -14q2 -58 1 -120q-4 -1 -5 -5q0 -4 5 -8q1 -23 -3 -53q3 -13 7 -29q-5 -67 -9 -136q-6 -7 -7 -19q-28 32 -51 62q-6 -18 -2 -34q11 -6 10 -19q20 -24 46 -45q7 7 18 16q0 14 6 24q8 166 8 322l5 5q-2 7 -5 12q-1 11 5 19
q-3 11 -7 23q-16 5 -30 14q-10 1 -17 0z"/>
            <glyph glyph-name="uni5E26" unicode="&#x5e26;"
                   d="M365 320q-53 -17 -108 -39l-68 -14l-7 -7q-20 2 -42 0q-9 -12 -16 -24q-7 -26 -15 -51q-5 -22 2 -42q6 -4 15 -5q2 6 9 7q1 12 1 24q-3 3 -6 2l6 42q6 15 16 30q8 3 17 10q0 -5 5 -9q43 11 86 17q0 -24 1 -50q-24 -10 -43 -31q1 28 -7 53q-6 2 -12 1q-4 -68 0 -133
q5 -8 14 -16h10q3 15 2 33q-5 1 -7 4q-2 19 -1 38q17 11 30 24q7 5 16 4q0 -97 1 -201q-4 -5 -7 -10q3 -6 12 -5q10 11 16 23q-1 20 -5 35q-2 63 5 119q10 -15 30 -24q19 24 36 50q9 20 9 42q-6 10 -12 16q-38 -2 -69 -8v47q47 21 99 33l7 -7q-34 -32 -72 -55q2 -1 2 -5h16
q17 14 38 20q21 18 40 36q-6 15 -19 25q-12 4 -25 1zM342 212q-5 -22 -16 -42q-8 -9 -18 -20q-15 17 -26 38v12q11 6 24 12q18 1 36 0zM283 417q10 0 23 6q3 -3 6 -7q-7 -18 -15 -37q-17 -6 -37 -7q-11 11 -15 25q-5 3 -10 2q-5 -6 -3 -15q6 -6 9 -15q-16 -4 -32 -11
q-7 -1 -11 3v13q-7 16 -17 27q-11 0 -11 -11q13 -15 15 -36q-37 -9 -80 -17q-1 -8 5 -14q11 -3 24 -2q24 13 51 13q0 -25 1 -50q7 -3 11 -10q3 4 8 5q5 11 6 24q-2 6 -6 8q1 14 -1 29q16 11 36 13q2 -20 -1 -41q-9 -6 -12 -15q11 -1 22 5q29 28 55 60h24q7 -7 20 -9
q4 -6 9 -12h16q8 5 17 12v8q-17 8 -35 13q-14 0 -26 1q-6 4 -11 7q10 16 11 37q-5 13 -11 21h-15q-13 -10 -20 -23zM280 359q-4 -15 -17 -22q-5 9 -3 19q9 4 20 3z"/>
            <glyph glyph-name="uni5E73" unicode="&#x5e73;"
                   d="M267 360q1 -5 5 -11q12 -2 23 -10v-12q-19 -24 -39 -44q-4 42 -11 81q-10 4 -14 -5q1 -47 7 -94q-14 -9 -18 -26q-10 -2 -19 -7q-2 5 -1 10q6 15 16 28q1 9 1 18q-10 -1 -16 -6q-3 17 -4 33q-7 13 -13 23q-9 -12 -8 -30q1 -8 5 -15q1 -36 -2 -69q-35 -10 -64 -17
q-9 -5 -10 -16q2 -6 9 -12q20 5 38 5q12 5 23 15q4 -1 9 -3q2 5 6 8q20 4 44 10q4 -16 9 -34q2 -97 9 -184l7 -7q4 5 7 10q3 111 -7 225q9 4 20 6l5 -5q12 7 30 5q10 -4 18 -9q25 6 54 3q5 -6 16 -6q4 7 6 14q-7 14 -21 17q-13 -6 -30 -7q-13 5 -24 10q-31 -2 -55 6
q-10 -4 -19 -6q2 13 16 22q4 1 8 1q16 29 37 56q4 16 1 30q-22 9 -45 12q-8 -4 -9 -13zM294 420q-31 -9 -56 -21q-42 -8 -88 -13q-7 -5 -10 -13q1 -5 5 -11q11 -4 27 -3q67 22 132 41q2 1 9 -9q8 3 19 2q3 10 3 22q-3 3 -5 6q-19 0 -36 -1z"/>
            <glyph glyph-name="uni5E74" unicode="&#x5e74;"
                   d="M254 338q3 -12 6 -26q-6 -3 -8 -9q-31 -3 -57 -13q-8 3 -10 -11q5 -10 18 -10q3 -25 1 -52q-40 -15 -83 -27q-14 0 -27 -1q-5 -3 -8 -8q0 -7 5 -12q64 12 119 16q3 6 10 9q21 4 43 9q4 -20 8 -41q-9 -43 -11 -90q4 -12 7 -25q0 -23 -3 -41q2 -2 6 -3q4 8 13 13
q-4 42 -5 85q1 6 5 10q7 57 1 99q31 8 61 18q24 2 47 -2q8 -6 14 -16q10 2 21 2q0 12 -7 22q-21 9 -43 16q-17 -2 -34 0q-10 -4 -18 -10h-21q-10 -6 -22 -9q0 30 -2 63q9 8 23 1q4 9 13 12q-3 13 -10 20q-18 0 -31 -12q-1 13 -5 23q-6 2 -10 5q-4 -1 -6 -5zM259 289
q6 -27 4 -61q-19 -10 -42 -13q2 28 3 61q18 5 35 13zM232 381q-12 -4 -22 -15q-1 -3 2 -5q41 3 80 9q0 -5 4 -10h11q10 4 16 15q-4 11 -9 18q-42 -3 -82 -12zM189 400q-3 -20 -7 -40q-26 -48 -54 -96q2 -11 13 -11q29 46 58 100q4 21 3 43q-6 11 -13 4z"/>
            <glyph glyph-name="uni5E76" unicode="&#x5e76;"
                   d="M181 382q17 -16 29 -36q12 2 24 8q5 7 6 17q-4 5 -8 5q-7 -8 -16 -9q-11 16 -22 34h-9q-4 -7 -4 -19zM310 433l6 -18q-20 -20 -39 -44q-37 -27 -71 -59q-19 -5 -33 -15q-2 -10 -4 -19q7 6 14 -2q36 8 71 20q2 -1 2 -5q-18 -10 -30 -27q-12 -1 -18 -3q-3 -6 -2 -14
q-51 -41 -105 -84q-2 -10 6 -17q18 4 36 2q39 12 72 22q-1 -32 -7 -64q-9 -12 -13 -26q-1 -10 3 -18q5 1 11 -1q13 24 21 50q5 31 6 60q8 3 7 11q14 7 30 13q9 -84 1 -180q4 -23 15 -44h12q-4 117 -4 235q28 9 49 16q18 1 39 0q-3 -9 -4 -21q9 -1 20 -2q6 3 12 8q0 13 -4 22
q-8 9 -16 14q-13 0 -23 3q-38 -10 -76 -19q-1 20 -2 38q-5 8 -11 12h-11q17 20 45 37q2 12 -5 19q-21 -2 -41 -6q-4 -5 -10 -9q-12 2 -19 -1q43 36 87 78q2 11 7 18q-3 14 -10 26q-9 1 -14 -6zM210 231q8 -14 6 -34q-38 -15 -79 -25q32 33 73 59zM269 278l8 -56q-7 -2 -7 -9
q-14 -2 -33 -7q0 24 -7 42q15 18 39 30z"/>
            <glyph glyph-name="uni5EB7" unicode="&#x5eb7;"
                   d="M207 128q15 -9 32 -15q7 -1 12 3v14q-17 9 -35 11q-9 -4 -9 -13zM201 338q-21 2 -44 7q-3 -3 -6 -8q2 -8 10 -13q10 -3 23 -4q-3 -5 -12 -12q-2 -64 -7 -129q-14 -32 -23 -67q-27 -42 -54 -83h14q37 45 65 89q1 14 4 27q4 6 9 12q1 20 5 39q43 8 89 15v-32
q-16 -4 -31 -13h-17q-7 -3 -12 -8q0 -6 3 -11q24 -2 43 7q7 2 12 -4v-23q-47 -35 -86 -70q-1 -9 4 -15q6 5 15 5q27 28 62 60q4 1 7 -3q2 -33 4 -71q-19 4 -36 17q-5 0 -7 -4q0 -5 1 -12q26 -18 49 -33q6 4 11 9q-4 54 -1 100q58 -32 109 -75q7 -3 17 -3q2 5 4 9
q-18 18 -33 34q-43 28 -83 50q25 26 55 49q2 10 5 19q-3 6 -8 10q-6 3 -10 -3v-13q-26 -23 -51 -52q-5 2 -8 4q-2 8 -3 14q3 10 9 17q11 0 22 2q5 4 11 9q9 32 22 57q19 1 36 4q-5 -5 -10 -12q3 -4 10 -6q18 7 32 21q-3 7 -8 14q-16 5 -33 3q-12 -4 -25 -5q-2 9 -1 18
q-6 5 -12 12q-26 3 -52 4q0 9 -6 13h-14q1 -13 -2 -25q-19 -5 -42 -6q-12 -4 -9 -17q29 -5 56 4q1 -10 1 -22q-42 -17 -88 -22q4 20 1 42l5 5q2 30 -4 53q38 9 78 19q28 3 58 2q11 -3 21 -10q0 -4 -2 -7q8 -3 19 1q7 10 9 22l-10 10q-42 5 -85 4q-38 -9 -75 -19zM325 226
q0 -16 -9 -32q-12 1 -18 -7q-6 13 -6 29q14 11 33 10zM304 274q8 -6 17 -10h14q0 -6 -3 -13q-18 -8 -36 -10q-6 12 -4 28q4 7 12 5zM207 408q1 -6 6 -12q23 -12 38 -32q10 -1 21 -2q8 6 8 14q-32 17 -63 33q-6 1 -10 -1z"/>
            <glyph glyph-name="uni5F97" unicode="&#x5f97;"
                   d="M167 312q-1 -20 -4 -39q-13 -15 -16 -37q-16 -20 -30 -42q-18 -13 -37 -27q-3 -5 0 -10q11 -4 23 0q22 21 39 38q8 17 21 30q5 0 8 -4q1 -67 0 -135q5 -10 12 -16q4 7 9 10q1 28 -6 50q0 30 6 60q-3 9 -4 18q4 13 7 23q-10 10 -20 18q5 21 13 39q-4 12 0 22l-6 6
q-10 2 -15 -4zM130 378q6 -9 7 -25q-13 -29 -33 -67q-11 -7 -20 -20v-9q7 -4 18 -5q10 12 21 24q23 49 42 97q-6 4 -11 8q-14 5 -24 -3zM324 394q-28 2 -54 -2q-11 -11 -24 -16q-3 3 -4 5q-10 3 -18 -3q-2 -8 2 -17q5 -3 11 -8q0 -11 9 -21q-3 -6 -4 -14q9 -36 17 -78
q-10 0 -22 -5q-4 -4 -6 -9q1 -5 5 -10q35 4 64 22q10 -4 20 -17q2 -11 0 -23q-25 -10 -52 -15q-7 4 -14 2q-22 -6 -41 -14q-5 -8 3 -18q53 13 108 23q2 -25 5 -51q-17 -8 -37 -6q-13 6 -24 12q-14 -1 -22 0v-6q13 -12 29 -16q2 1 5 3q26 -7 49 -21q-5 -18 0 -34
q-6 -10 -13 -21q-24 10 -43 19q-1 7 5 10q-9 6 -19 5v-8q26 -30 55 -53q14 -2 24 7q3 46 7 94q-5 35 -3 68q5 8 12 16q16 8 35 13q5 -6 3 -16q7 -6 20 -5q11 5 24 12q-4 11 -10 20h-13q-6 4 -10 9q-10 1 -18 1q-18 -11 -39 -16q-4 6 -4 11q4 9 9 18q18 6 27 19q-9 4 -9 14
q-19 4 -35 -1q28 38 48 72q-1 18 -4 33q-12 10 -21 25q-20 -1 -33 -9zM299 273q4 -7 9 -12q-12 -3 -22 -11q-5 5 -7 10q8 8 20 13zM303 325q8 -4 19 -2q-11 -12 -21 -24q-4 10 -13 15q6 7 15 11zM336 382q8 1 16 -3q2 -7 7 -13q-1 -14 -6 -27q-5 -1 -11 -1q-7 5 -11 9
q-36 -3 -68 -12q-2 11 -7 29q7 2 9 8q37 -1 71 10z"/>
            <glyph glyph-name="uni603B" unicode="&#x603b;"
                   d="M104 139q-3 -6 -6 -10q1 -16 1 -31q10 -28 18 -58q4 -6 11 -7q6 11 5 27q-10 29 -21 55v23q-5 2 -8 1zM329 169q-5 -2 -4 -8q-10 -1 -21 -1q-22 -12 -40 -22q-17 -1 -33 -3q-2 -5 -1 -12q4 -3 10 -7q13 -1 28 0q9 -5 21 -8q25 -16 54 -40q-27 -6 -54 -11q-23 1 -42 6
q-20 17 -34 34q-13 32 -32 60q-7 2 -12 -2q-1 -8 2 -16l11 -11q9 -27 23 -55q16 -11 27 -23q19 -7 42 -14q24 5 45 3q1 4 4 6q20 3 51 3q8 6 7 14q-48 36 -90 65q28 21 58 29h24q13 -7 27 -17q8 1 14 6q-5 16 -16 23q-21 7 -43 9q-12 -7 -26 -8zM231 274q-10 4 -20 3
q-10 -5 -17 -10q-2 -8 4 -14q40 6 84 8q-3 -7 -7 -18q-26 -21 -51 -41q-17 -2 -28 -8q-8 20 -11 41q-10 20 -25 39q-5 3 -10 3q-5 -4 -5 -12q16 -26 29 -55q1 -21 8 -43q7 -10 17 -14q2 4 6 3q1 7 1 14q23 13 48 25q16 6 33 8q0 7 3 12q-8 6 -8 13q6 5 12 9q10 16 13 35
q-9 9 -20 10q-26 -3 -56 -8zM170 362q11 -37 31 -67q5 0 11 -2q6 8 6 18l-40 58q-6 -2 -8 -7zM261 365q18 -1 33 -11q-8 -11 -14 -24q-24 -21 -52 -36q-2 -4 -1 -10q4 -4 12 -3q11 6 25 9v6q20 13 39 31q7 17 11 34q-7 8 -16 13q-13 0 -22 4q-12 -4 -15 -13z"/>
            <glyph glyph-name="uni6210" unicode="&#x6210;"
                   d="M210 391v-7q6 -6 17 -7q9 -27 19 -54q-17 -3 -33 -13q-28 1 -52 -4q-4 -3 -9 -8q1 -25 3 -53q-11 -29 -15 -63q-20 -50 -48 -95q5 -5 13 -5q7 8 13 14q23 40 36 85q36 24 71 48v-31q-16 -40 -27 -86q-9 -5 -18 1q-7 19 -15 36q-5 -4 -9 -10q-1 -13 4 -27q11 -12 22 -26
q9 -2 19 -7q6 4 11 11q11 44 26 87q5 29 8 60l-6 16q-8 -1 -15 -2q-30 -21 -59 -45q5 36 6 79q38 5 71 13q17 -54 25 -112q4 -3 8 -8q10 -25 13 -53q-9 -9 -21 -22q-12 -2 -21 -9q-3 -9 4 -15q14 6 31 10q9 13 20 22q20 -34 45 -63q19 -15 42 -37q9 -3 24 -7q4 3 7 7
q-4 7 -8 12q-4 45 -8 89q-4 5 -8 7q7 6 1 12q-5 -1 -9 -5q1 -5 6 -9q-4 -38 4 -76q-3 -4 -8 -3q-10 12 -25 16q-30 33 -51 72l24 70q5 36 4 73q-4 4 -9 3q-7 -25 -8 -55q-8 -32 -22 -58q-14 28 -25 61q-7 46 -11 88q8 7 21 15q18 2 37 1q1 6 7 9q-5 7 -7 14q-14 2 -27 0
q-21 -7 -35 -19q-5 31 -18 57q-10 5 -20 12q-9 0 -15 -6zM311 398q-2 -4 2 -8q7 -1 15 -1q19 -8 33 -25q11 -6 26 -8q2 4 6 7q-2 10 -6 18q-23 15 -44 24q-10 2 -20 2q-7 -4 -12 -9z"/>
            <glyph glyph-name="uni6211" unicode="&#x6211;"
                   d="M300 365q-7 -7 0 -18q33 -14 64 -28q6 4 6 12q-8 9 -16 19q-28 8 -54 15zM195 419q10 -25 20 -51q-3 -2 -4 -5q-5 4 -13 3q-27 -12 -49 -23q-17 2 -29 -5q-3 -12 5 -19q16 3 38 4q-7 -14 -13 -31q8 4 20 5q1 -22 -4 -48q-8 0 -15 1q-2 -2 -1 -6q-25 -8 -43 -26
q-15 -2 -35 -6q-2 -13 7 -21h19q36 17 71 40q2 -2 4 -6q-15 -16 -29 -32h-8q-2 -6 -5 -12h-9q-2 -3 -2 -7q-7 -1 -14 -1q-11 -9 -25 -18q-6 -7 -5 -18q32 -37 62 -75q10 -5 21 -12q9 6 19 15q5 32 4 60q2 5 6 9q1 37 1 68q8 8 12 16q-8 9 -7 22q8 7 17 16q6 2 11 -3
q4 7 11 11h10q3 -11 14 -17q-1 -10 1 -20q9 -25 23 -50v-14q-12 -18 -27 -39q-18 -5 -33 -7q0 -10 7 -18q7 -3 16 -8q31 20 52 45q44 -64 98 -121q23 -18 48 -32q-2 17 -3 35q-10 24 -16 50q-3 39 -10 85q-3 6 -6 6q0 18 -1 35q-6 9 -11 3q3 -27 0 -52q3 -2 7 -6
q2 -18 0 -35q8 -20 11 -41q-1 -17 -2 -36q-19 15 -36 31q-21 24 -40 48q-19 27 -26 59q13 27 22 49q1 17 4 32q-5 6 -10 8q-9 -19 -13 -42q-9 -8 -17 -23q-9 18 -18 34q-7 27 -14 52q12 4 26 6q-1 13 -7 20q-6 2 -10 4q-4 -5 -10 -7q-4 5 -10 4q-6 25 -9 49q-14 36 -29 71
q-6 4 -9 5q-6 -1 -10 -8zM166 181q6 -22 3 -49q-5 -29 -12 -58h-7q-19 24 -40 50q-2 7 -3 13q28 22 59 44zM195 285q13 3 21 -4q-14 -6 -22 -9q2 9 1 13zM220 341q5 -8 11 -18q-1 -11 1 -22q-18 -2 -39 4q-6 5 -5 11q16 13 32 25z"/>
            <glyph glyph-name="uni624B" unicode="&#x624b;"
                   d="M158 376q-6 -4 -4 -12q10 -8 25 -6q21 9 44 16h18q3 -6 4 -13q-10 -6 -13 -19q11 -1 22 6q6 -13 0 -28q-19 -10 -39 -19q-16 -3 -33 -4q-9 -6 -14 -12q1 -8 9 -11q16 -1 31 3q4 -6 7 -12q16 5 30 14q5 0 9 -4q0 -16 3 -33q-66 -22 -128 -48q-5 4 -6 9q-26 -5 -41 -25
q7 -9 18 -14q12 0 24 2q48 21 93 41q20 2 39 9q2 -25 5 -47q-8 -28 -7 -62q5 -15 7 -31q-3 -19 -3 -44l-6 -6q-36 16 -69 34q-20 19 -36 30q-10 2 -15 -5q6 -15 22 -28q47 -34 96 -62q13 0 23 3q5 6 9 12q1 110 7 213q53 1 106 -5q12 -4 26 -7q4 4 10 6q-2 9 0 15q-4 4 -8 6
q-65 9 -128 6q-8 6 -9 16q1 19 0 45q14 8 22 19q-2 9 -10 14h-11q2 13 -1 30q16 15 32 31v8q-7 7 -14 9q-73 -22 -146 -40z"/>
            <glyph glyph-name="uni6295" unicode="&#x6295;"
                   d="M214 180v-11q-11 -2 -15 -13q2 -8 11 -15q6 -2 14 -2q13 -12 31 -23q3 -7 3 -16q-14 -13 -27 -23q-29 4 -58 9q-10 -2 -8 -13q16 -11 33 -20q20 1 41 1q6 8 17 8q11 12 16 24q6 5 13 7q36 -23 78 -43q24 -6 51 -9q21 4 44 18q-2 6 -7 10q-27 2 -49 -4q-18 8 -38 21
q-12 2 -22 4q-22 13 -44 27q5 25 13 52q5 4 10 9q2 17 2 39q-5 5 -10 7q-49 -22 -99 -44zM286 189l7 -7q-8 -18 -13 -38q-4 -3 -9 -6q-8 8 -20 6q-8 8 -17 16q3 11 17 15h13q10 8 22 14zM114 342q-4 -6 -7 -13q8 -5 16 -11q6 -11 10 -26q-5 -4 -4 -11q-15 -13 -34 -21
q-20 3 -32 -6q-3 -8 3 -15q33 6 64 6q2 -18 -3 -35q-34 -34 -65 -67q-8 -12 -5 -27q11 -13 28 -22q10 -23 26 -44q6 -3 12 -2q0 -6 4 -11q8 3 15 7q4 27 3 56q2 5 6 9q2 58 6 106q4 7 10 11q0 7 1 14q-6 4 -11 8q3 15 15 25q4 -1 14 2q7 8 7 22q-12 5 -25 0q-10 24 -14 49
q-9 5 -22 5q-9 -7 -18 -9zM124 177q7 1 9 -6q-3 -42 -6 -86q-5 -3 -10 -7q-10 20 -26 31q-3 12 -7 19q21 25 40 49zM280 372q-17 -16 -33 -32q-8 -1 -17 -2q-4 -5 -10 -9q-1 -10 3 -18q-11 -49 -16 -97q6 -8 19 -7q4 6 8 10q9 47 16 92q12 18 27 30q4 2 9 2q6 -42 7 -89
q6 -7 15 -17q19 1 35 -6q21 4 40 10q2 8 2 17q-6 7 -13 9q-23 0 -48 -2l-6 6q0 20 3 38q-4 27 -7 53q-8 6 -15 12q-11 2 -19 0z"/>
            <glyph glyph-name="uni6398" unicode="&#x6398;"
                   d="M376 151q5 -21 22 -34q9 -30 25 -60q7 -1 15 -3q-16 38 -29 78q-9 11 -18 21q-8 1 -15 -2zM378 259v-22q-6 -7 -13 -14q-4 2 -7 5q-8 -7 -17 -9q0 14 -10 22q-7 2 -11 -4q7 -13 3 -29q-9 -3 -19 -2q2 12 2 27q-4 12 -15 11q-3 -29 -13 -58q-10 -6 -17 -16v-9q6 -7 18 -7
q16 17 32 28l8 -4q-3 -32 -12 -63q-6 -6 -9 -14q-7 0 -13 -2q6 18 12 38q-7 7 -14 7q-5 -14 -9 -28q-15 -11 -21 -29q-16 -8 -24 -19q2 -8 11 -14q21 8 42 21q8 3 18 2q5 -6 14 -7q0 12 7 18q13 2 24 7q16 -5 33 -9q10 -1 19 2q2 10 -3 24q-37 0 -69 4q4 14 11 25
q-1 27 4 55q12 9 26 10q0 -25 -5 -49q2 -6 9 -7q5 7 11 11q2 26 13 49q0 24 -3 46q-7 10 -13 3zM179 375q1 -39 4 -80l-8 -8q-6 2 -11 2q-4 -4 -6 -7q-42 -9 -82 -16q-1 -5 6 -9q49 6 97 16q4 -14 4 -32q-4 -8 -6 -18q-41 -40 -86 -74q-8 -6 -11 -17l7 -7q43 39 89 74
q1 -47 -3 -97q3 -7 6 -15q-2 -11 -2 -23q-3 -6 -11 -5q-23 21 -39 37q0 8 -4 -5q12 -19 22 -36q17 -16 37 -26q4 4 10 3q28 49 57 97q-2 3 -4 4q15 53 24 113q34 19 71 36q7 1 14 1q7 8 8 18q3 3 8 3q9 12 14 25q-6 9 -13 15q-21 6 -44 3q-19 -8 -39 -12q-5 -4 -5 -11
q13 -6 31 -4q4 5 10 9q11 0 23 1q2 -5 5 -10q-13 -13 -28 -26q-25 -11 -47 -25q-2 21 -1 42l-5 5q-13 0 -17 -12q-1 -33 -1 -63q-4 -7 -7 -13q0 -18 -2 -37q-13 -38 -28 -76q-1 -8 0 -15q-13 -14 -19 -31q-1 7 -4 12q-2 94 6 189q3 5 7 10q4 -1 9 -1q4 5 11 10q0 8 -5 12
q-8 3 -14 5l-14 72q-9 4 -14 -3z"/>
            <glyph glyph-name="uni6536" unicode="&#x6536;"
                   d="M247 369q-6 -26 -7 -55q-16 -41 -36 -81q-12 -12 -21 -23l-4 -20q25 -26 51 -52q-4 -10 -6 -22q-10 -8 -25 -19q-24 -6 -48 -8q11 85 18 178q-5 40 -9 82q-10 9 -19 16q-7 -2 -12 -8q0 -7 -4 -13q9 -9 13 -20q-2 -28 7 -49q-7 -11 -4 -26q-14 -15 -26 -34h-6q-1 26 -7 47
q-8 10 -18 15q-4 1 -6 -3q1 -25 9 -46q-7 -18 -3 -37q-5 -14 -15 -32q-4 -13 -4 -29q5 -6 16 -7q4 4 9 8q12 27 18 55q15 6 21 21q4 -1 8 -4q-6 -50 -6 -98q-2 -7 -6 -12q1 -23 0 -42q3 -5 7 -11h12q14 22 17 27q27 6 53 14q20 15 37 32q5 1 10 -1q11 -9 21 -20
q44 -23 90 -42q28 -7 59 -13q8 4 16 9l-13 13q-20 5 -43 9q-40 23 -79 34q-26 23 -51 47q14 49 21 98q-5 6 -12 5q-8 -5 -12 -12q-9 -33 -13 -66q-3 -4 -8 -4q-9 12 -24 18q-6 8 -9 15l34 34q26 19 54 32q2 -2 5 -6q13 5 26 8q7 12 22 16q0 9 -2 16q-9 3 -17 5
q-34 -20 -69 -40q-9 -1 -12 0q10 28 23 55v44q-10 6 -21 2z"/>
            <glyph glyph-name="uni65B0" unicode="&#x65b0;"
                   d="M170 432v-10q13 -14 27 -30q0 -4 -2 -7q-33 -8 -63 -25q-2 -8 5 -13q9 0 18 -1q12 9 30 10q3 -3 2 -9q-14 -25 -31 -51q-2 -9 7 -15h8q-9 -11 -19 -24q-20 -8 -34 -23q-2 -10 8 -16q27 14 55 38q6 -17 2 -38q-28 -14 -55 -33l-16 -2q-3 -4 -7 -9q-2 -8 5 -13h13
q2 -8 3 -23l-6 -6q-2 -11 3 -21q13 2 15 15q6 -7 16 -11q8 -21 26 -41q6 -1 13 -4q13 47 18 98q18 -10 33 -29q9 -4 21 -7q7 3 14 7q3 37 9 70q18 23 39 38q2 -1 5 -4q-3 -50 -3 -103q9 -75 10 -151q-9 -5 -6 -15h14q9 10 13 25q-4 75 -9 146q-1 56 2 108q13 14 34 18
q7 1 13 -3q8 7 9 17q-6 12 -17 13q-31 -10 -60 -22q-25 -19 -47 -37q-7 35 -4 70q9 5 13 12q7 2 15 2q-1 5 4 7q8 1 17 1q10 6 12 17l-10 10q-31 -1 -52 -8q0 -8 5 -16q-12 -8 -25 -22q1 -10 -3 -17q4 -19 7 -42q-1 -47 -3 -88l-8 -2q-11 11 -19 22q-14 4 -25 9q0 9 2 16
q11 7 23 15v7q-20 16 -44 23q-2 8 7 13q9 -4 20 -4q9 9 15 21q1 11 -7 13q6 16 11 32q-9 12 -22 16q4 15 11 26q-3 15 -4 30q-20 19 -41 33q-6 1 -10 -3zM174 190q7 0 12 -6v-58q-4 -12 -7 -19q-23 29 -44 57q16 12 39 26zM199 311q4 -1 3 -6q-13 -16 -29 -25q4 15 16 28
q6 1 10 3z"/>
            <glyph glyph-name="uni65E5" unicode="&#x65e5;"
                   d="M273 356q-8 -4 -13 -10q-18 -1 -32 0q-16 -9 -30 -19q-6 9 -15 9q-6 -6 -7 -14q4 -10 11 -21v-73q-2 -4 -5 -9q3 -41 3 -77q-5 -4 -7 -9q3 -24 0 -52q5 -13 18 -15q2 4 6 8q-5 3 -3 9l7 7q-3 47 7 94q13 7 20 19q18 6 38 11q3 -3 4 -7q9 -3 16 3v21q-7 7 -13 12
q-9 -2 -16 0q-27 -11 -50 -21q-4 41 3 84q14 10 32 6q1 4 5 7q21 8 47 9q5 -9 12 -21q2 -22 -6 -47q2 -63 0 -128q2 -8 6 -17q-1 -16 -3 -30q-3 -2 -6 -3q-13 8 -24 16q-1 14 -1 26q-9 7 -22 7q-23 -14 -48 -25q4 -6 7 -14q6 -3 14 -5q9 5 24 7q25 -21 48 -38q10 -3 22 -7
q7 12 10 27q-6 116 4 231q-4 16 -9 29q-12 14 -25 25q-14 -4 -29 -5z"/>
            <glyph glyph-name="uni6708" unicode="&#x6708;"
                   d="M192 346q4 -10 10 -17q3 -34 2 -62q-9 -1 -13 -9v-12q5 1 8 -4q-2 -36 -4 -68q-7 -32 -13 -69q-5 -12 -18 -18q-3 -12 6 -19q6 -1 14 -1q10 17 19 37q4 27 10 53q16 3 33 2q11 10 25 14q12 9 16 22q-5 4 -12 2q-10 -6 -18 -14q-10 -1 -20 -1q-2 -3 -4 -7q-12 0 -19 2
q1 24 6 46q-2 2 -4 3q4 11 7 23q18 5 37 13q6 -3 13 -4q11 3 12 14q-5 4 -10 7q-9 1 -18 0q-13 -9 -27 -11q-3 7 -7 12q-1 32 9 59q-13 8 -27 18q-7 -4 -13 -11zM303 388q-35 -6 -72 -9q-10 -4 -16 -13q1 -7 10 -8q43 10 88 19q10 -74 5 -153l6 -10q1 -74 10 -150
q-3 -10 -9 -17q-24 20 -50 51q-7 12 -7 25l-11 11q-7 0 -10 -7q3 -13 7 -27q5 -8 15 -8q3 -10 6 -21q18 -18 36 -41q14 -9 31 -16q3 8 9 13q-1 60 -2 127q-6 9 -9 22q-5 69 -3 145q5 29 8 59q-13 10 -27 17q-9 -3 -15 -9z"/>
            <glyph glyph-name="uni6709" unicode="&#x6709;"
                   d="M249 393q-1 -35 -4 -68q-8 -9 -15 -19q-16 -2 -31 -7q-35 0 -70 -2q-6 3 -9 5q-11 -1 -19 -5v-9q10 -10 25 -13q39 2 77 4q9 8 24 8q3 -1 3 -5q-12 -24 -27 -46v-12q-35 -50 -75 -97q-9 -1 -14 -9q-2 -10 5 -17q16 9 33 22q24 30 48 58q12 19 19 40q7 10 16 11
q5 -9 8 -20q-3 -21 -9 -43q0 -70 -4 -138q6 -4 16 -3q3 16 2 32l6 6q-2 11 1 28q37 15 73 34q4 -2 8 -6q-1 -38 6 -76q-6 0 -16 2q-18 12 -29 27q-8 0 -9 -6q10 -11 18 -28q25 -19 46 -38q5 3 12 7q-11 107 -14 219q-7 17 -15 34q-16 -1 -31 -4l-42 -21q-7 10 -14 21v14
q6 11 13 22q33 5 62 15q17 2 35 2q1 -5 1 -12q4 -3 12 -2q22 5 41 15v11q-5 7 -12 12q-30 -1 -58 -2q-39 -8 -77 -19q3 23 6 47q-4 24 -7 46h-6q-5 -6 -9 -15zM322 244q3 -20 8 -41v-59q-36 -15 -71 -26q-1 25 -1 54q18 11 43 10q11 6 20 13q0 8 -5 10q-27 -3 -54 -10
q-4 11 -2 22q30 18 62 27z"/>
            <glyph glyph-name="uni671F" unicode="&#x671f;"
                   d="M252 360q3 -33 4 -66q-23 -11 -53 -10q-6 28 -10 54q-7 4 -12 0q-1 -27 1 -53q-17 -2 -22 -11q8 -8 23 -7q1 -7 5 -12q-6 -11 -6 -24q3 -2 6 -6v-21l-6 -6q1 -6 6 -13q-6 -22 -6 -46q-13 -8 -28 -12q-24 0 -45 -5q-5 -4 -4 -12q4 -3 9 -7q47 7 87 21q-8 -14 -16 -30
q-16 -9 -25 -20q4 -3 5 -10q10 -5 23 0q20 26 38 55q3 2 6 0v-9q12 -18 32 -34q5 2 9 6q11 -4 25 -6q14 22 25 43v12q17 10 35 15q2 6 2 13q-9 4 -19 3l-10 -6q1 25 3 48q4 5 9 7h32q2 -45 2 -92q2 -21 9 -44q-2 -4 -7 -3q-19 14 -37 21q-3 -4 -3 -9q16 -18 36 -36
q6 0 14 -1q0 -3 4 -7q11 1 15 11q-13 126 -10 251q3 1 6 4q1 11 1 21q-40 0 -82 -1q-7 -2 -6 -10q7 -8 21 -9q16 1 32 3q4 -13 9 -31q-4 -19 -3 -41q-17 -9 -38 -11q-5 18 -7 36q4 14 6 26q-6 5 -11 8q-28 -1 -50 -1q4 25 3 52q-5 12 -12 21q-12 2 -15 -9zM226 173
q2 -6 6 -13q-11 -6 -22 -13q-6 3 -4 9q10 12 20 17zM243 236h8q-8 -22 1 -48q-4 -5 -10 -4q2 15 -3 28q-5 -1 -6 2q9 9 10 22zM215 242q6 2 11 -3q2 -10 -7 -17q-5 8 -13 10q5 5 9 10zM248 270q1 -8 1 -19q-13 10 -32 15q11 6 31 4zM288 273q12 -3 25 -7q3 -30 4 -58
q-5 -37 -11 -73q-9 -16 -16 -36q-6 -5 -13 -6q-7 8 -15 9q-11 15 -20 29q6 7 13 13q11 5 26 4q8 5 15 12q0 8 -7 12q-13 -1 -21 3q2 44 3 87q6 9 17 11z"/>
            <glyph glyph-name="uni673A" unicode="&#x673a;"
                   d="M165 389q0 -15 3 -30q2 -5 7 -8q-1 -5 -4 -10q3 -12 6 -26q-2 -3 -5 -6q3 -3 5 -8q-2 -20 -5 -48q-46 -20 -92 -45q-31 -9 -52 -10q-5 -1 -6 -8q6 -2 6 -9q16 3 35 3q35 13 67 31q4 -2 8 -5q-3 -52 -13 -103q-13 -22 -22 -46v-15q5 -5 12 -6q15 28 25 57q5 7 10 9
q9 -25 8 -56q3 -21 14 -38q11 4 14 17q-4 62 4 127q17 21 33 40q1 8 -5 11q-12 -11 -27 -16q-2 15 -1 31q5 9 7 19q18 10 39 12l10 -10q-6 -67 -16 -134q-14 -15 -18 -38q2 -12 0 -22q7 -2 15 -3q7 9 12 19q9 36 19 73q1 50 8 100q16 15 32 27q6 -1 9 -7q-2 -20 -9 -38
q-3 -35 -3 -75q-8 -18 -8 -38q14 -28 37 -49q17 0 28 -12q2 6 8 6q2 -3 7 -6q24 3 48 -4q32 8 65 14q6 6 10 12q-13 67 -25 131q-6 -2 -11 -6q1 -54 11 -108q-4 -3 -6 -8q-21 -4 -38 -11q-34 10 -66 10q-19 8 -35 15q-4 14 -10 22q5 40 4 73q13 53 24 113q-4 6 -12 5
q-4 -5 -9 -9q-17 -4 -28 -6q-9 -8 -18 -15q-13 4 -22 3q-3 -6 -11 -7q-18 15 -39 26q-4 33 -4 66q-7 16 -11 33q-12 4 -19 -6zM165 228q3 0 6 -4q-4 -29 0 -57l-15 -15q0 33 3 67q4 4 6 9z"/>
            <glyph glyph-name="uni6765" unicode="&#x6765;"
                   d="M159 273q-1 -28 0 -61q5 -6 13 -10q2 2 5 4q-2 31 -3 61q-3 5 -6 9q-6 2 -9 -3zM188 394q11 -5 19 -15v-28q-12 -8 -27 -11h-31q-4 -2 -5 -7q1 -5 5 -10q21 2 41 7q14 2 11 -4q5 -46 7 -92q-14 -8 -22 -19q0 -5 2 -10q-12 -8 -22 -13q-5 0 -6 3q-20 -12 -47 -19
q-6 3 -11 3q-9 -3 -14 -12q3 -2 3 -6q19 -2 41 0q16 9 37 12q3 -4 2 -10q-18 -34 -38 -66q-22 -6 -47 -20q5 -9 15 -16q15 6 34 9q8 6 16 14q2 -17 8 -33q22 -23 45 -44q7 -1 12 3q0 18 7 32q1 34 -3 65q4 33 11 64q4 -2 10 -3q15 -14 26 -29h7q15 -17 33 -37q14 -5 26 -14
q-2 -6 3 -11q3 6 11 5q35 -17 73 -27q6 5 6 14q-15 11 -26 19q-16 2 -30 4q-32 21 -63 41q-36 34 -72 62q31 13 67 19q16 -5 36 -3q4 4 3 10q-10 10 -21 14q-42 -6 -78 -22q-6 4 -13 3q-2 5 -1 10q33 24 55 56q1 12 -2 22q-15 6 -29 7q-5 -6 -2 -15q7 -3 7 -14
q-18 -21 -34 -36q-3 42 -4 83q6 11 19 8q4 -5 -1 -10q3 -7 12 -6q15 11 25 25q-5 7 -9 12q-20 -6 -42 -9q-6 20 -7 43q-5 10 -14 13q-10 -2 -14 -11zM211 182q-5 -60 -4 -122q-7 -10 -6 -24q-6 4 -15 7q-13 18 -21 38q-6 4 -12 3q25 48 45 100q7 5 13 -2zM211 213
q0 -4 -4 -6q-2 3 -4 5q2 5 8 1z"/>
            <glyph glyph-name="uni6B21" unicode="&#x6b21;"
                   d="M121 217q-24 -46 -47 -92q-2 15 -8 26q-7 -13 -9 -31q0 -17 2 -33q2 -8 9 -16q6 2 14 2v19q18 48 38 92q16 28 36 49q1 11 -3 18q-14 -18 -32 -34zM217 259q-10 -20 -17 -42q0 -16 -1 -32q-6 -2 -9 -10q1 -9 2 -19q-14 -27 -31 -55q-32 -18 -58 -36v-8q3 -2 9 -2
q23 14 51 24q11 12 22 21q16 23 23 51q23 -13 57 -34q10 -12 22 -25q45 -24 96 -43q22 1 50 -1q12 4 22 9q-7 8 -15 11q-32 1 -62 4q-38 20 -78 38q-14 12 -23 24q-30 20 -57 34q3 43 11 86q-5 8 -14 5zM61 295q4 -17 18 -27q7 2 19 -4q2 -15 1 -32q12 2 19 12q-6 15 -3 32
q-17 14 -38 21q-9 1 -16 -2zM200 358q0 -9 -6 -13q1 1 5 -2q1 -12 0 -43q-15 -19 -19 -45q7 -8 18 -13q-1 7 5 10q30 24 64 41q13 3 23 -4q-21 -52 -49 -100q4 -5 12 -4q11 12 20 23q16 36 36 66q1 16 3 30q-13 11 -25 16q-10 -1 -18 -3q-5 -5 -12 -11q-27 -11 -45 -17
q8 20 15 43q-3 11 0 20q-13 10 -27 6z"/>
            <glyph glyph-name="uni6C11" unicode="&#x6c11;"
                   d="M230 377q-33 -19 -72 -37q-14 -1 -26 -6q-8 -129 -21 -267q5 -7 14 -11q35 45 66 93q7 15 0 27q12 11 25 21q17 -24 25 -57q11 -15 22 -32q31 -29 69 -55q36 -14 70 -29q-10 84 -22 173q-5 6 -8 0q1 -33 1 -67q5 -24 8 -49q-2 -14 -3 -29q-13 6 -22 15q-7 0 -13 1
q-35 24 -67 57q-24 41 -38 86q21 15 41 32q-1 9 -9 13q-11 0 -19 -4q-9 -13 -21 -22q-13 19 -18 39q29 24 55 55q10 20 19 39q-1 7 -3 13q-6 7 -12 10q-21 -3 -41 -9zM179 172q-2 -12 -9 -25q-19 -17 -34 -42q-2 19 1 38q22 15 42 29zM194 255q11 -17 18 -38
q-36 -27 -74 -42q6 31 10 63q6 0 15 -1q17 8 31 18zM149 285q15 -2 22 -16q-9 -6 -17 -13q-6 0 -8 4q0 13 3 25zM268 368q-12 -19 -22 -40l-35 -35q-17 -4 -34 -7q-5 4 -10 4q-9 16 -21 27q54 24 108 52q8 2 14 -1z"/>
            <glyph glyph-name="uni6FC0" unicode="&#x6fc0;"
                   d="M66 344q-1 -5 0 -12q8 -9 20 -15q7 -6 8 -17h9q8 8 13 17q0 7 -1 12q-24 15 -49 15zM182 374q-16 -28 -36 -49q0 -25 8 -50q-4 -30 0 -63q-6 -9 -16 -13q-10 0 -17 3q-7 -10 -15 -19q-13 -2 -24 -9q0 -4 -2 -7q5 -7 14 -15q-11 -24 -23 -44q-8 29 -10 57q4 6 3 13
q-4 2 -6 7q0 34 -6 61q-6 1 -10 -2q-3 -49 0 -96q2 -11 7 -26q-1 -23 1 -55q2 -15 9 -30q5 0 10 1q13 35 24 66q-4 3 -3 8q5 12 13 20q-1 4 -3 6q10 18 23 31q12 4 29 6q4 -6 13 -11v-13q-19 -27 -43 -53v-9q18 3 33 14q5 -6 10 -14q0 -10 -3 -20q7 -15 14 -32q6 2 10 -3
q18 15 30 38q16 1 34 0q20 15 39 35q4 13 14 21q7 -7 20 -12q8 -12 20 -25h8q4 -3 -1 -7q3 1 6 3q18 -11 35 -21h12q1 -3 1 -7q32 -15 65 -21q4 8 4 13q-11 14 -23 16q-26 8 -50 19q-7 9 -15 15q-5 0 -11 2q-28 28 -57 53q-1 11 -3 19q15 35 24 66q-4 22 2 44q13 2 25 15v9
q-8 9 -20 6q-16 -10 -31 -19q-3 22 0 50q-5 3 -13 3q-3 -5 -9 -8v-37q-11 -15 -13 -38q-9 -15 -20 -29q-19 -7 -38 -10q-3 10 0 19q13 37 22 74q-6 8 -13 15q-28 0 -47 -7q3 19 15 37q-6 11 -16 9zM216 134q-9 -33 -24 -63q-6 -1 -9 3q-4 23 -1 47q-4 3 -5 7l9 9q16 3 30 -3
zM235 204q-3 -9 -1 -19q8 -5 20 -7q12 -11 25 -21q-1 -7 4 -13q-11 -21 -27 -42q-13 -3 -24 -10q-4 11 -4 20q4 4 8 9q1 16 1 31q-6 5 -12 9h-29q-3 14 3 30q15 12 36 13zM304 261q7 0 11 -9q-5 -25 -10 -52q-8 -16 -17 -22q-14 12 -26 23q15 34 42 60z"/>
            <glyph glyph-name="uni7406" unicode="&#x7406;"
                   d="M197 216h5q0 6 -1 11q-6 -3 -4 -11zM177 344q-15 0 -32 -2q-20 -12 -45 -14q-2 -4 -1 -9q6 -2 11 -6q19 4 40 5q6 -8 6 -21q-6 -14 -4 -36q-14 -10 -31 -12q-8 -8 -16 -18q-9 -1 -16 -7q-6 -8 -5 -19q15 -11 31 -22q10 -24 23 -50q-10 -27 -18 -57v-26q4 -5 10 -7
q6 13 16 26q2 15 5 30q24 54 49 108q-4 8 -12 5q-5 -11 -14 -17q0 21 6 42q-4 11 -9 20l4 62q19 8 40 15q1 8 1 16q-5 3 -8 6q-19 -3 -31 -12zM152 232q0 -31 -8 -62q-20 21 -36 42l18 16q14 5 26 4zM255 348q-2 -8 3 -14q9 2 20 2q8 -8 11 -20q-15 -12 -33 -17
q-10 29 -18 59q-6 4 -12 4q2 -55 18 -109q1 -21 0 -44q8 -15 15 -31q-10 -8 -21 -13q-6 -7 -6 -17q15 -20 41 -36q0 -3 1 -7q-23 -5 -41 -3q-22 -8 -39 -16q2 -10 13 -15q17 2 33 10q74 7 148 6q18 -7 41 -12q-1 9 -2 16q-7 7 -13 11q-26 4 -51 3q-7 5 -16 7q-18 -4 -40 -4
q-6 15 -3 32q11 13 26 26q2 9 3 18q-10 12 -23 14v19q16 17 29 33q9 32 23 66q-2 13 -3 24l-12 18q-10 4 -18 9q-39 -5 -74 -19zM283 163q3 -15 1 -35q-20 5 -27 22q11 11 26 13zM285 225q5 -15 4 -32q-7 -5 -13 -10q-8 14 -3 30zM292 288q2 -4 3 -11q-7 -10 -18 -16
q-9 6 -8 14q9 12 23 13zM334 345q5 -4 9 -10q-4 -31 -15 -63q-3 -4 -8 -3q-2 13 3 28q-16 19 -26 43q16 7 37 5z"/>
            <glyph glyph-name="uni754C" unicode="&#x754c;"
                   d="M265 215q3 -53 0 -109q7 -50 9 -95q4 -5 10 -12q8 1 14 5q-7 49 -6 99q-4 6 -6 11q4 17 3 36q-4 5 -5 11q-1 30 5 57l-7 7q-10 -1 -17 -10zM257 405l-14 -8q-6 2 -12 3q-45 -11 -87 -25q-7 8 -4 15q-4 6 -10 7q-9 -4 -16 -12q7 -5 13 -12q8 -33 18 -64v-28q6 -4 12 -12
q-3 -6 -3 -13q2 -2 6 -3q6 -18 10 -38q-10 -13 -18 -25q-22 -19 -43 -38q-10 -2 -21 -2q-5 -4 -3 -13q6 -5 11 -11q9 2 20 2q8 9 15 18q7 6 16 7q18 22 40 46q3 3 6 0q-4 -28 -4 -59q-10 -22 -12 -51l6 -6q5 1 10 4q9 17 14 37q3 41 3 82q-3 7 -7 10q5 14 15 21l34 4l6 6
q30 -8 57 -19q51 -33 100 -66q8 -1 14 6v12q-29 21 -61 35l-15 15q-36 22 -73 38q23 28 41 63v50q-8 19 -19 30q-23 -2 -45 -6zM206 304q-3 -13 -4 -28q-6 -2 -13 -1q-2 9 -8 15q13 12 25 14zM300 394q6 -17 6 -38q-6 -11 -7 -25q-19 -29 -40 -54q-1 6 2 14q-5 5 -8 9
q-17 -2 -27 -5q6 12 6 29q20 16 39 32q-3 8 -8 12q-11 0 -20 -3q-4 11 -12 11q-8 -11 -11 -27q-27 -19 -51 -38q-12 18 -17 41q24 15 58 26q44 9 90 16z"/>
            <glyph glyph-name="uni7684" unicode="&#x7684;"
                   d="M254 216q28 -16 60 -34q7 3 16 8q-6 11 -17 20q-24 12 -49 21q-10 -4 -10 -15zM155 344q-18 -37 -42 -69v-18q4 -4 12 -3q5 -16 11 -30q-4 -55 0 -108q3 -12 8 -27q9 0 16 5q1 10 11 16q8 0 16 -3q1 -4 1 -9q14 -12 29 -25q9 4 16 9q-1 29 9 52q3 44 4 88q-8 28 -11 59
q-6 4 -9 9q-40 -6 -72 -21q-4 10 -6 17q15 32 35 64q-6 4 -10 6q-10 -4 -18 -12zM218 152q3 -2 5 -8q-2 -19 -2 -34q-11 -2 -20 -4q-6 15 -1 28q9 7 18 18zM193 195q4 -7 5 -17q15 4 24 17q1 -11 1 -24q-20 -14 -38 -25q-17 21 -21 39q13 7 29 10zM210 269q6 -23 11 -47
q-34 -3 -63 -12q0 23 -3 43q26 12 55 16zM268 356q-1 -3 -3 -7q2 -9 8 -18q-4 -26 -10 -49q-11 -13 -17 -32q-1 -11 10 -14q7 6 15 11q4 6 4 12q11 8 23 20q18 5 40 0q7 4 15 6q6 -4 14 -7q9 -21 10 -41q-3 -2 -6 -3v-33q-20 -51 -36 -110q-6 -6 -13 -10q-12 10 -23 21
q-10 22 -19 41q-6 -6 -11 -7q3 -17 11 -37q18 -27 38 -46q16 2 28 15q22 57 44 113q-1 25 9 48q-5 21 -3 45q-12 22 -35 35l-8 -6q-20 0 -40 -1q-17 -8 -28 -9q2 4 6 6q4 23 4 47q-7 6 -10 12q-9 0 -17 -2z"/>
            <glyph glyph-name="uni76CA" unicode="&#x76ca;"
                   d="M199 133q3 -12 -5 -21q0 -20 10 -39q5 0 10 2q1 30 1 61q-10 2 -16 -3zM212 163q-20 -5 -42 -5q-7 -18 -5 -39q7 -29 12 -61q-17 -4 -32 -9q-23 8 -41 -1q1 -11 11 -19q20 -1 42 -1q10 6 22 9q8 0 16 -3q9 9 20 12h16q3 4 9 7q70 -1 137 0q33 -14 67 -28q4 3 3 8
q-8 12 -15 22q-33 13 -67 22q-39 -2 -68 1q17 24 29 54v33q-5 12 -16 22q-9 4 -18 3q-43 -13 -80 -27zM245 154q0 -15 -1 -33q-5 -20 -19 -37v-13q-13 -7 -28 -6q-10 34 -17 72q31 9 65 17zM301 169l7 -7q-2 -11 0 -24q-13 -28 -26 -51q-7 -7 -16 -10q-10 10 -12 19
q2 10 7 16q1 22 2 48q19 5 38 9zM179 242q-32 -41 -59 -80q-20 -10 -36 -26q-8 -1 -15 -3q-5 -5 -5 -12q5 -5 11 -8q23 11 45 25q41 50 87 104q0 5 -4 7q-15 1 -24 -7zM221 252q14 -14 29 -23q22 -8 47 -13l84 -50h14q-3 10 -4 19q-41 21 -79 43q-39 11 -74 30q-11 3 -17 -6
zM168 345q0 -14 2 -28q5 -10 14 -17q14 3 27 9q11 19 16 35q-6 0 -11 -3q-12 -10 -19 -22h-9q-9 13 -11 27q-6 1 -9 -1zM271 383q-22 -11 -36 -26v-7q14 1 21 13q11 4 25 4q5 -3 4 -10q-34 -26 -60 -51q-19 -5 -33 -17q0 -9 -7 -14q-17 -1 -33 -1q-32 -12 -66 -24
q0 -8 8 -12q102 21 197 50q7 -2 16 -2q8 -6 7 -18q5 -2 12 -2q13 6 25 15q-3 10 -8 18q-15 1 -27 7q-48 -3 -92 -16q36 23 77 60q0 14 -2 25l-8 8q-10 2 -20 0z"/>
            <glyph glyph-name="uni76EE" unicode="&#x76ee;"
                   d="M230 357q-10 -4 -18 -12v-11q11 0 22 -4q-1 7 5 7q25 -2 50 5q8 -13 12 -28q3 -57 6 -115q3 -13 7 -28q1 -48 0 -91q-12 8 -22 16q1 8 3 15q-15 11 -25 21h-10q-5 -5 -4 -12q-23 -7 -44 -13q-5 30 -1 63q7 3 15 0q3 8 12 11q9 -2 19 -4q4 7 11 15q-1 10 -5 18q-8 2 -16 1
q-17 -12 -38 -16q-4 26 2 48q14 6 29 12h25q4 5 10 7v12q-4 5 -8 8q-27 -3 -53 -9q-3 15 -6 26q7 2 12 8q-5 6 -3 13q-6 4 -14 3q-14 -4 -29 -12q0 -5 2 -11q3 -1 7 -1q3 -12 6 -27q-1 -84 2 -170q-8 -6 -8 -16q9 -16 22 -28l6 6v21q26 9 55 11q28 -28 57 -51h16
q-9 150 -20 291q-6 17 -18 29q-34 -2 -71 -8z"/>
            <glyph glyph-name="uni76F8" unicode="&#x76f8;"
                   d="M191 341q6 -33 9 -67q-23 -8 -43 -17q-23 -2 -47 0q-4 -4 -3 -10q8 -8 20 -12q22 3 40 5q-3 -37 -9 -73q-14 -37 -22 -79l8 -8q7 -1 13 2v12q12 13 23 32q5 -26 11 -54q7 -9 21 -9q4 38 12 71v60q10 13 20 24q2 10 -6 11q-9 -6 -16 -10q-2 17 -1 35q6 5 10 12q16 5 35 5
q2 -28 5 -60q-4 -58 -6 -123q2 -6 7 -12q8 -1 14 6q-1 10 0 18q13 3 27 8h32q21 -23 45 -41q10 -2 16 6q-5 62 -4 118q-6 68 -16 142q-6 5 -10 8q-28 -8 -64 -9q-8 -6 -18 -9q-2 -7 3 -13q36 6 72 5q6 -55 9 -107q2 -1 5 -4q-4 -47 0 -97q-4 -6 -8 -1l2 14q-4 5 -7 9h-20
q-6 9 -15 9q-6 -6 -16 -10q-19 -1 -33 1q5 21 0 41q19 10 39 22q1 -6 5 -11q5 -1 11 4q1 9 3 16l-11 11q-8 1 -15 1q-15 -10 -29 -18q-6 12 -3 28q20 14 46 19q1 -8 11 -7q5 6 7 12q0 7 -2 12q-13 6 -30 4q-13 -6 -26 -13q-3 23 -9 44q-5 4 -12 3q-14 -7 -36 -9q-9 5 -16 12
q-3 11 -2 21q-6 15 -16 26q-7 -1 -10 -6zM204 162q-2 -15 -1 -33q-4 -2 -7 3v26q4 7 8 4zM203 251q3 -35 -3 -68q-14 -7 -23 -20q-5 4 -3 9q2 14 9 24q-1 29 6 52q7 6 14 3z"/>
            <glyph glyph-name="uni795E" unicode="&#x795e;"
                   d="M172 412q18 -13 39 -29q-29 -33 -58 -53v-7q-16 -3 -29 -9q-1 -11 9 -15q16 4 33 4q13 8 29 15q4 1 4 -4q-17 -29 -29 -58q-26 -30 -50 -58q-23 -11 -38 -29q-14 -1 -25 -9q0 -13 12 -20q37 20 71 50q10 17 22 34q12 9 21 10q1 -78 -4 -155q7 -3 16 -5q3 36 8 74
q1 55 -3 109q27 -3 57 -8q3 4 5 9q-3 5 -4 9q-18 7 -38 6q-11 6 -16 13q5 7 10 13q2 23 9 44q-5 7 -13 5q-17 -15 -32 -17q3 6 8 12h8q21 17 35 41q-12 18 -29 28q-12 5 -22 11q-8 -1 -6 -11zM326 426q-4 -4 -2 -11q6 -10 16 -9q-1 -38 4 -72q-8 -8 -17 -13q-23 0 -41 -12
q-2 -6 3 -10q26 2 51 7q-4 -9 -3 -22q-23 -15 -45 -26q-7 33 -18 64q-6 2 -12 1q-2 -10 -1 -22q18 -59 29 -122q6 -10 12 -25l16 -2q0 19 -4 33q15 4 26 1q2 -100 10 -195q5 -4 11 -8q3 6 8 15q-5 79 -9 157q1 7 5 12q-6 11 -3 26q17 -5 37 -16q7 4 14 6q10 30 26 56
q11 37 17 77q-9 11 -21 19q-19 0 -38 2q-17 -6 -36 -8q-3 46 -1 89q-8 3 -13 9q-11 1 -21 -1zM297 245q9 -1 21 0q13 -5 22 -18q-9 -6 -16 -17q-9 -2 -15 -5q-8 7 -11 13q-2 15 -1 27zM376 280q4 1 7 -4q-9 -19 -25 -30v24q10 4 18 10zM404 318q15 -4 32 -3q1 -12 1 -26
q-18 -46 -38 -90q-14 2 -24 11q5 13 19 14q4 -3 10 -2v15q-6 9 -15 11q5 18 14 34q-5 12 -14 16q-16 0 -29 -3v17q24 5 44 6z"/>
            <glyph glyph-name="uni79F0" unicode="&#x79f0;"
                   d="M256 174q-4 -31 -10 -62q-7 -14 -16 -27q-2 -7 3 -13h11l17 17q-1 19 9 30q0 26 1 58q-3 5 -8 3q-4 -2 -7 -6zM127 327q-1 -7 6 -12q24 8 44 14q-12 -11 -18 -21q5 -34 5 -69q-44 -31 -85 -59q-3 3 -3 12q-16 -13 -30 -29q-3 -11 5 -19q46 28 91 53q-8 -21 -15 -44
q-12 -18 -24 -35q-11 -4 -23 -4q-4 -3 -4 -8q4 -4 7 -9h18q14 10 27 22q20 34 34 69q6 -29 9 -66q-8 -4 -16 -6q1 -8 -3 -13q2 -15 7 -30q7 -9 20 -8q3 10 7 22q-1 46 0 86q25 -20 51 -42q10 5 9 17q-21 30 -50 45q-10 12 -12 29q3 8 9 13q15 5 33 14q3 7 4 15q-7 7 -17 3
q-15 -13 -27 -15q-1 31 0 60q18 17 27 39q-8 7 -13 11q-39 -14 -73 -35zM304 372q-6 -7 -10 -15q-5 -35 -17 -67q-20 -18 -30 -43q-3 -10 2 -19q10 3 18 12q6 17 16 31q8 10 17 17q27 14 55 25q12 5 21 -2q-2 -13 -10 -24q-14 -9 -26 -25q-8 8 -21 6q-5 -9 -1 -20
q-9 -3 -9 -14q7 -3 13 -8q4 -23 3 -51q-6 -47 -7 -98q-3 -2 -5 -4q-17 13 -26 32q2 14 -7 20q-7 -8 -5 -23q12 -27 29 -53q7 -7 17 -13q11 0 19 7q-1 71 3 134q6 4 8 6q34 -24 74 -48q9 -14 19 -31q8 -10 22 -11q4 8 4 18q-16 15 -27 32q-34 24 -69 49q-15 3 -27 -3
q-4 22 -5 50q20 18 40 37l18 34q-6 18 -19 27q-19 -5 -40 -7q-19 -12 -39 -21q7 25 13 53q-3 12 -11 10z"/>
            <glyph glyph-name="uni7B2C" unicode="&#x7b2c;"
                   d="M198 312q0 -8 1 -17q7 -7 12 -16q11 -4 25 -5q9 6 19 8q2 -11 4 -23q-13 -10 -24 -18q-10 -1 -19 -4q-7 -11 -12 -22q1 -21 0 -43q-6 -17 -9 -38q3 -4 7 -9h10q4 4 7 10q1 15 1 24q7 5 15 13q3 1 5 -3q-10 -34 -25 -65q-12 -11 -25 -21q-7 0 -12 -2q-7 -3 -5 -11
q12 -6 29 -3q17 12 34 28q12 37 26 62q1 -19 -3 -43q4 -41 7 -82l-4 -4q-9 18 -13 37q-8 0 -12 -8q3 -20 4 -48q10 -14 25 -25q6 2 12 2q4 12 5 24q-2 5 -5 9q-3 84 3 163l13 13q20 7 36 16q13 1 26 4q11 -1 19 -11q-6 -11 -4 -26q-3 -3 -7 -3q-12 -40 -30 -74q-5 -1 -9 -1
q-15 17 -25 37q0 8 -1 15q-7 6 -11 -2q2 -13 3 -28q14 -16 19 -37q10 -11 26 -15q9 17 21 28q1 6 -3 9q17 30 32 59q4 17 6 31q-2 18 -12 31q-15 5 -31 3q-34 -9 -67 -25q-5 22 5 39q15 3 26 13q-2 10 1 17q8 9 20 18q2 13 -5 21q-32 -5 -63 -11l-4 4q-12 -4 -22 -9
q2 12 8 22q-15 0 -25 -17q-5 11 -15 18q-7 -2 -10 -9zM258 226q4 -1 4 -7q-6 -8 -11 -5q-6 -12 -14 -23q-7 -1 -12 2q-1 11 2 21q13 10 31 12zM301 288l-19 -19q-2 9 -4 17q11 8 23 2zM324 357l2 -8q17 -13 36 -27v-9q14 -3 24 8q1 4 1 7q-7 9 -16 16q-6 2 -11 2
q-11 11 -19 18q-11 3 -17 -7zM202 369q-6 -6 -10 -13q1 -4 7 -7q12 2 27 0q0 -6 -2 -16q2 -3 6 -3q10 8 22 15v12q-7 6 -15 12q-19 1 -35 0zM157 343q-26 -47 -47 -100q-1 -5 4 -10q6 2 13 6q18 42 41 80q9 32 19 64q-1 17 -3 31h-6q-14 -37 -21 -71zM311 423q-8 -6 -9 -13
q5 -4 14 -2q-2 -6 -2 -16q-18 -23 -35 -47q3 -3 3 -9q5 -1 12 -3q16 29 37 50q11 2 20 9q11 0 20 -6q-8 -4 -3 -12q21 2 35 15q-3 11 -12 15q-30 3 -54 -1q-8 11 -14 22q-7 1 -12 -2z"/>
            <glyph glyph-name="uni7D2F" unicode="&#x7d2f;"
                   d="M184 123q-16 -16 -28 -36q-19 -8 -36 -28q0 -4 3 -9q5 -3 13 -3q16 14 32 21q10 18 22 34q0 8 1 16q-5 4 -7 5zM296 155v-12q25 -28 51 -52q18 -9 31 -22q10 -2 16 6q0 5 -2 9q-45 38 -86 74q-7 2 -10 -3zM262 396q-43 1 -86 -2q-5 -4 -3 -11q-13 -2 -21 8q-19 3 -32 0
q-2 -4 -2 -10q14 -5 21 -18q5 -33 13 -65q14 -32 27 -67q-11 -10 -23 -16q-3 -8 -4 -18q6 -7 17 -5q23 18 51 27q-23 -21 -55 -48q-16 -9 -33 -16q-10 -9 -12 -19q0 -4 5 -7q14 2 28 6q13 11 26 19l28 2q4 6 11 7q6 -5 16 -10q5 -47 3 -91q-4 -7 -5 -17q-11 12 -19 31h-6
q-3 -22 5 -42q12 -11 23 -28h9q3 8 9 16q-1 7 -4 12q4 15 7 30q0 55 -7 106q18 7 33 15q5 15 13 28q19 -12 33 -34h7q5 7 9 15l-8 14q-19 10 -37 22q-9 -5 -7 -14q-31 -19 -65 -29q-8 -1 -11 2q24 19 49 45q0 7 1 14q-22 5 -42 -2q3 11 16 17q7 -3 15 -7q12 0 24 4
q26 42 49 85q-1 15 3 27q-8 12 -17 24q-10 5 -17 9q-19 -2 -35 -9zM208 263q-9 -10 -17 -17q-2 8 -1 16q8 7 18 1zM212 321v-17q-8 -9 -15 -17q-9 1 -16 -3q-7 14 -11 27q21 11 42 10zM224 376q2 -15 -6 -28q-25 -6 -46 -16q-5 4 -11 9q-2 11 -2 22q8 7 17 16q21 -4 48 -3z
M279 388q11 -2 23 -3q5 -6 10 -15q-7 -26 -16 -52l-32 -40q-8 -1 -11 2q11 8 12 19q-18 9 -35 9q1 7 1 14q21 20 42 32v9q-4 6 -9 6q-10 -11 -24 -12q-2 11 -1 22q11 0 25 1q7 4 15 8z"/>
            <glyph glyph-name="uni7F51" unicode="&#x7f51;"
                   d="M241 343q-11 -4 -19 -10l-65 -13q-12 -6 -22 -13q-4 8 -10 13q-7 -1 -11 -7q-1 -29 4 -65q-4 -7 -5 -15q6 -14 5 -31l-5 -5q3 -51 0 -107q5 -7 15 -9q3 25 12 43q-2 70 0 131q-4 10 -6 18q1 9 3 17q60 21 82 18q-1 -12 -1 -25q-12 -24 -21 -48q-11 -4 -15 -7
q-10 10 -16 21q-13 1 -18 -9q8 -16 27 -33q-6 -16 -14 -29q-11 -3 -14 -12q8 -8 23 -6q10 12 19 23q10 -6 29 -23h24q17 24 44 37q-7 5 2 9q5 -2 11 -3q2 -5 5 -11q13 -13 30 -20q8 -1 13 4v16q-21 17 -39 36q8 18 17 37v28q-4 7 -10 12h-9q-9 -22 -9 -49q-6 -3 -11 -7
q-14 8 -21 19q-9 1 -14 -3q1 -7 3 -15q14 -10 22 -26q-19 -21 -42 -42h-8q-12 12 -17 23q13 38 31 75q2 20 0 37q18 6 39 14q38 -1 75 1q3 -7 12 -7q4 -8 7 -19q-1 -44 -5 -87q1 -3 5 -4q-9 0 -9 -9q3 -14 7 -29q-4 -3 -7 -6q5 -22 4 -48q3 0 5 -3q-2 -20 -7 -38
q-23 7 -36 23q-4 16 -16 25q-7 1 -10 -4q2 -6 2 -15q11 -13 21 -30q16 -15 36 -28h20q2 5 7 10q1 64 -2 130q7 57 11 120q-5 12 -9 24q-2 0 -7 -1q-13 15 -26 22q-59 -5 -116 -15z"/>
            <glyph glyph-name="uni8001" unicode="&#x8001;"
                   d="M233 408q3 -16 10 -31q-3 -27 -2 -52q-11 -5 -19 -11q-17 -1 -33 -2l-5 5q-8 2 -13 -3v-11q10 -10 22 -15q25 6 44 6q-6 -22 -10 -45q-13 -20 -30 -39q-51 -16 -110 -30q-3 -9 5 -15q16 -1 34 0q54 17 109 32q2 -3 6 -6q-14 -14 -18 -30q-39 -52 -85 -91q-5 -11 -5 -24
q21 7 38 22q11 18 29 34q3 1 6 -2q1 -40 13 -79l12 -12q37 -6 74 -11q33 2 67 4q22 12 50 16q2 5 6 8q-13 53 -17 108q-4 8 -8 14q-4 -1 -6 -5q1 -51 9 -101q-27 -12 -56 -20q-56 3 -108 4q-6 6 -9 12q-1 21 -1 41q41 36 83 78q1 7 2 13q-5 7 -12 6q-37 -39 -73 -66
q-1 25 6 45q15 22 31 38q-1 7 2 12q11 2 19 8q48 -1 98 -11q2 4 7 6q-3 7 -7 13q-26 8 -49 16q-21 1 -47 1q3 21 14 35q-5 8 -14 7q-22 -24 -32 -53q-16 -3 -23 4q15 22 24 54v20q12 8 26 13q13 -1 26 2q1 6 4 11q-6 7 -13 10q-18 -5 -41 -8q-3 30 -5 60q-6 10 -13 18
q-7 1 -12 -3z"/>
            <glyph glyph-name="uni8089" unicode="&#x8089;"
                   d="M259 275q11 -18 30 -34h9q6 -5 13 -13q-1 5 4 5q-1 -3 3 -9q11 0 21 3v16q-33 21 -71 39q-9 2 -9 -7zM237 369q5 -2 6 -7q-6 -19 -6 -38l-10 -10q-20 -3 -40 -5q-7 -4 -12 -11q-18 8 -38 7q-1 -4 -5 -8q8 -8 18 -21q-3 -52 0 -99q-3 -23 -8 -45q1 -44 0 -87q6 -8 18 -8
q6 30 13 62q19 6 35 20q24 28 42 62q18 -15 32 -32q9 -4 22 -6q10 -17 27 -28q9 2 18 0q2 -25 6 -51q-2 -4 -5 -7q-8 5 -19 4q-13 14 -28 24q-5 -5 -7 -9q6 -11 12 -24q16 -6 27 -19q16 -7 34 -9q4 5 9 9q-4 79 3 157q-9 51 -9 109q-6 8 -7 16q-11 10 -18 16q-17 3 -35 3
q-23 -1 -48 -7q-5 18 -2 44q-6 14 -20 15q-7 -5 -5 -17zM272 307q31 0 58 -1q7 -6 16 -9q1 -37 1 -63l6 -6q0 -20 -3 -40q3 -1 6 -4q-1 -19 -6 -37q-9 6 -21 5q-26 19 -54 32q-4 8 -11 14q-5 -2 -9 -2q-2 17 7 32q-1 7 -5 11q-13 3 -19 -8l-8 -42q-17 -29 -38 -56
q-10 -5 -20 -7q-3 75 3 142q3 3 4 -2q7 7 7 19q14 0 31 2q0 -5 4 -9q-8 -15 -13 -33q-8 -6 -15 -17q-3 -14 -7 -28q4 -1 6 -7q11 5 22 13q18 49 40 94q9 4 18 7z"/>
            <glyph glyph-name="uni80FD" unicode="&#x80fd;"
                   d="M252 170q3 -45 5 -92q8 -9 18 -19q21 -7 41 -12q20 4 41 8h47q5 6 9 11q-1 8 -2 14q-16 3 -34 3q-6 -2 -10 -6q-39 -5 -80 -3q-4 5 -10 6q-8 18 -5 38q3 5 10 3q12 19 28 37q6 16 9 32q4 3 10 4q1 8 1 15q-5 3 -11 2q-9 -12 -17 -26q-1 -6 -1 -13q-16 -14 -28 -32
q-4 0 -5 3q1 31 3 63q-4 7 -11 5q-7 -18 -8 -41zM205 335q1 -10 7 -19q13 -5 26 -17q0 -4 2 -9q7 -3 17 -3q1 4 1 8q-15 24 -42 41q-7 1 -11 -1zM274 326q-4 -4 -9 -8q7 -42 16 -85q10 -2 16 -12q31 10 66 11q4 11 -4 20q-35 -3 -59 -12q-5 8 -7 14q-2 18 0 30q31 23 50 56
q-7 5 -16 3q-15 -19 -31 -38h-8q-2 26 -1 53q-5 7 -13 5q-4 -15 0 -37zM164 364q3 -11 9 -23q-27 -40 -62 -74q-9 -13 -11 -29q7 -7 18 -6q18 11 36 21q2 -1 5 -4q-6 -26 -6 -59q-5 -7 -9 -15q0 -52 -4 -110q3 -11 16 -10q-1 37 2 71q5 4 13 5q12 23 34 36q2 -42 -4 -81
q-6 21 -13 38h-8q2 -32 14 -63q10 -13 28 -15q-3 74 -1 157q-7 25 -17 46q-14 5 -29 0q-5 6 -3 13q24 11 40 20h17q5 5 6 11q-5 4 -10 7q-10 -3 -18 -3q0 8 -1 16h-9q-6 -3 -4 -10q-17 -7 -33 -5q13 17 32 36q1 13 1 25q-16 6 -29 5zM193 182q-9 -16 -27 -27q-5 -1 -6 2
q5 10 14 16q11 2 19 9zM184 232h9q6 -10 12 -18q-2 -16 -4 -33h-7q0 11 -6 14q-10 -4 -21 -5q-2 8 0 19q6 13 17 23z"/>
            <glyph glyph-name="uni83B7" unicode="&#x83b7;"
                   d="M307 277q-2 -4 -2 -10q30 -22 65 -35q4 3 9 5q-4 17 -12 27q-33 11 -60 13zM265 425q8 -3 12 -14q-5 -32 -17 -61q-28 -3 -53 -10q-1 6 -5 9q-9 -4 -11 -12q-11 0 -18 -6q-9 30 -13 58q-6 2 -9 6q-4 -1 -6 -5v-19q4 -3 7 -9q1 -17 1 -34q-20 -5 -36 -13h-42q-6 8 -14 8
q-3 -11 6 -20q23 -7 54 -6q12 11 31 8q0 -13 10 -22q-1 -19 2 -37q5 -2 9 -9q-4 -3 -3 -9q-6 -1 -12 -1q-4 3 -3 6q-11 5 -23 3q-4 -3 -3 -9q19 -6 31 -17q-18 -33 -43 -62q-13 -11 -30 -12q-2 5 -1 11q3 10 11 18q-4 7 -8 7q-8 -11 -15 -23q0 -12 -4 -21l14 -14q15 4 31 11
q28 30 51 59h7q7 -14 8 -31q-7 -3 -15 -4q-8 -8 -4 -19q-19 -36 -48 -73q-7 -4 -14 -10q-3 -6 -2 -14h12q14 7 21 16q0 -12 -2 -26q8 -25 20 -43q7 -3 16 -4q8 7 15 18q-2 20 7 32q9 1 17 -2q14 7 27 15q2 14 16 22q-2 5 0 12q6 6 10 12v21q10 13 16 27q15 -17 34 -34v-7
q32 -31 69 -59q26 -6 53 -19q10 1 21 3q5 5 4 12q-30 10 -59 13q-17 11 -34 18q-14 16 -27 31q-4 1 -8 1q-8 18 -20 30v10q-15 6 -18 17h-10q2 9 -2 18q5 5 8 11q7 6 18 6q-5 -4 -3 -13q11 -1 22 0q-4 12 5 19q17 1 34 9q-1 10 -5 16q-30 -1 -56 5q0 -4 -4 -5q-13 24 -22 49
q-10 2 -15 -6q3 -37 -3 -72q-10 -8 -24 -9q-6 -5 -5 -14q6 -2 5 -10q13 7 25 3q-9 -30 -17 -64q-11 -19 -27 -42q-11 0 -18 -8q-3 2 -5 4q0 13 1 25l6 6q-1 24 1 47l5 5q-1 22 -5 44q-5 0 -7 4q1 17 -4 28q3 21 11 37q2 3 6 2q-1 6 -1 10q5 3 10 14q-4 0 -5 3q2 4 7 3
q5 -2 10 -8q6 5 14 5q4 6 4 14q5 4 12 8q1 15 5 29q5 7 11 12q56 7 120 6q7 -2 12 -7q-4 -2 -3 -7q4 -1 11 -1q11 6 20 16q-5 9 -15 15q-68 5 -137 -4q8 29 11 63q-5 4 -10 6v9q-4 4 -9 3q-6 -1 -5 -8zM174 106q-2 -11 3 -19q-8 -23 -8 -49q-7 -11 -11 -25q-7 4 -10 14
q-3 23 0 45q15 22 26 34zM245 330q-5 -12 -8 -25q-18 6 -38 -3q-12 -12 5 21q22 6 41 7z"/>
            <glyph glyph-name="uni878D" unicode="&#x878d;"
                   d="M63 191q4 -56 10 -116q4 -12 9 -26q11 -2 18 5q-6 24 0 44q-9 14 -15 29q1 31 -4 65l-8 8q-7 -2 -10 -9zM95 374q15 -14 33 -17q-15 -15 -23 -35q-4 -42 -3 -89q5 -12 9 -25q-6 -5 -13 -11q6 -9 20 -18q4 -7 6 -17q-12 -7 -17 -20q5 -7 14 -12q7 6 18 7q-2 -21 1 -45
q9 -4 20 -9q19 -29 43 -55q6 -2 14 -2q6 23 6 46q4 7 8 11q7 -2 16 -5q26 10 50 24q18 0 37 3q37 -4 71 -9q6 -8 10 -22q11 -9 22 -21q7 3 13 8v9q-33 50 -67 93q-7 1 -12 3q-9 -6 -10 -17q4 -2 10 -3q7 -8 9 -19q-4 -1 -6 -4q-26 5 -52 6q-1 18 1 38q3 9 7 19q6 7 17 6
q10 10 12 24q20 19 39 39q10 14 11 30q-8 7 -16 16q-19 6 -39 6q-12 -4 -23 -6q-5 23 -19 41q-13 2 -22 -5v-13l16 -10q-1 -9 0 -21q-19 -11 -39 -17q-9 7 -8 19q-11 11 -25 16q-9 -5 -8 -14q14 -10 22 -25q6 -48 7 -93q6 -20 18 -37q7 0 14 2q4 10 -2 17q3 9 13 10
q4 -21 1 -47q-32 -16 -68 -24q0 43 6 83q-1 20 -7 37q-11 6 -20 13q-7 1 -12 -1q-8 28 -22 49q-1 14 -1 27q-6 3 -8 8q-20 4 -40 4q5 12 12 22q12 12 28 17q10 2 19 -3q4 7 11 8q-1 8 -3 14q-12 6 -24 7l-44 -6q-14 3 -27 6q-3 -4 -4 -11zM195 214q7 -3 16 -2q4 -14 7 -30
l-7 -7q3 -21 2 -44q-4 -35 -14 -66q-15 6 -23 26q-10 27 -14 53q14 16 26 32q-8 7 -16 9q8 18 23 29zM168 242q5 -1 5 -7q-6 -8 -11 -3q0 6 6 10zM309 269v-61q-10 -7 -20 -13q-17 21 -20 53q19 17 40 21zM379 287q7 -7 5 -20q-19 -17 -43 -41q-11 2 -14 12q3 18 3 36
q4 7 12 10q17 1 37 3zM127 298q10 -1 24 0q3 -3 2 -9q-14 -19 -26 -34q-5 2 -6 9q0 8 5 14q-4 5 -5 10q1 7 6 10z"/>
            <glyph glyph-name="uni8BA1" unicode="&#x8ba1;"
                   d="M132 340q1 -10 9 -17q12 -2 22 -13q-2 -6 3 -14q7 -1 14 4v8q5 -1 10 3q1 9 0 17q-13 9 -23 16q-13 0 -23 5q-8 -4 -12 -9zM272 396q14 -1 25 -10q-1 -46 3 -94q-14 -10 -27 -20h-18q-15 -10 -35 -13v-9q-12 -9 -23 -23q-17 -20 -27 -45q-7 -4 -13 -8q-7 26 -4 57
q-6 12 -9 23q-8 4 -13 11q-16 3 -24 -8v-13q8 -4 21 -7q7 -62 15 -122q4 -8 14 -12q3 6 9 9v16l8 8l8 36q19 35 45 67h24q22 15 48 18q-5 -18 3 -38q-4 -5 -5 -15q3 -2 5 -7q1 -77 -5 -148q6 -7 9 -16q0 -18 3 -34q6 0 11 6q2 12 6 22q-9 43 -5 88q9 48 9 100q-4 24 -6 50
q15 11 35 10q16 -6 35 -9q5 4 10 10q1 17 -7 26q-14 2 -28 1q-18 -4 -35 -10q-8 1 -13 4q2 47 3 102q-10 8 -21 13h-25q-9 -6 -6 -16z"/>
            <glyph glyph-name="uni8BB0" unicode="&#x8bb0;"
                   d="M80 242q-3 -7 -1 -17q18 1 42 5q3 -21 8 -43q3 -61 4 -121q5 -3 10 -7q5 2 11 5v23q15 35 27 70q14 24 34 48q4 7 4 16q-6 0 -11 -1q-31 -34 -53 -66q-7 43 -7 92q-17 11 -37 9q-15 -8 -31 -13zM122 341q7 -16 15 -34q17 -11 34 -26q11 0 19 7q0 9 -2 15q-22 15 -42 27
q-3 5 -2 10q-6 7 -12 8q-7 -2 -10 -7zM266 333q-13 -6 -25 -16q-2 -7 2 -13q53 13 97 18q-5 -6 -6 -16q-24 -28 -48 -53q-10 -6 -19 0q-12 -12 -25 -28q-1 -6 -1 -13q5 -3 13 -9q1 -43 -3 -84q8 -13 21 -28q14 -4 27 -9q37 -1 75 -2q3 5 9 7q15 4 33 4q12 7 20 16
q-4 65 -7 126q-7 -3 -14 -5q-2 -51 -2 -107l-9 -9q-21 1 -36 -8q-36 3 -69 2q-8 4 -16 7q-3 7 -8 12q5 44 4 91q25 15 57 23q5 7 6 14q-8 9 -17 11q29 31 46 61q-2 7 0 16q-7 4 -10 10q-47 -10 -95 -18z"/>
            <glyph glyph-name="uni8BF7" unicode="&#x8bf7;"
                   d="M114 238q-11 -9 -21 -21q-2 -6 3 -10q11 1 18 11q5 1 9 -4q-1 -27 0 -51q-4 -3 -5 -8q1 -36 6 -79q8 1 14 -5q4 4 9 8q-4 3 -3 9q25 56 53 109q2 8 -2 13q-7 -9 -18 -14q-12 -19 -20 -40q-5 -4 -12 -5q-4 40 -5 74q-6 8 -12 14q-8 1 -14 -1zM118 309q2 -4 2 -10
q14 -5 28 -13q0 -6 1 -12q-3 -8 -9 -15q2 -6 11 -7q10 12 15 25q-1 11 -2 21q-16 10 -32 16q-9 2 -14 -5zM288 377v-15q-5 -5 -10 -9h-19q-17 -6 -30 -14q-4 -5 -2 -12q5 -3 12 -3q18 10 40 15q6 -11 4 -28q-29 -7 -59 -19q1 -15 9 -31q-31 -12 -60 -19v-11q4 -2 9 -7
q35 12 70 17q-2 -9 6 -13q-8 -52 -6 -101q-6 -8 -10 -20q5 -21 0 -47q2 -3 6 -8q5 6 12 11q6 21 7 36q27 17 52 33q1 6 1 12q-13 7 -28 3q-6 -12 -19 -14q-2 15 0 31q19 14 41 22q6 -7 14 -1v15q-4 6 -9 7q-24 -3 -40 -15q-2 5 -1 9q7 8 15 14q17 8 36 15q4 -8 7 -17
q1 -30 1 -57l5 -5q4 -45 4 -91q-3 -1 -6 -1q-19 15 -32 29q-6 -3 -4 -11q7 -8 11 -20q20 -14 40 -25h14q-6 69 -5 130q-4 11 -7 20q-1 19 3 36q-8 15 -18 29q-10 2 -19 0q-14 -4 -25 -12q-11 -1 -16 0q5 11 13 21q43 4 90 2q11 -4 21 -13q12 -1 16 6q-3 6 -3 13
q-11 5 -19 12q-30 0 -64 2q-5 -2 -10 -5q-15 -1 -25 9q11 7 22 13q-1 10 -6 18q-10 0 -16 4q1 12 5 23h27q7 4 12 7v10q-8 4 -17 6q-9 -4 -17 -6q-8 13 -17 21q-5 1 -6 -1zM266 283q1 -5 1 -13q-5 -2 -9 -3q-4 3 -7 6q2 12 15 10z"/>
            <glyph glyph-name="uni8C6A" unicode="&#x8c6a;"
                   d="M100 216q1 -6 6 -12q-1 -41 1 -82q2 -2 8 -3q4 4 11 7q5 10 5 20q-8 36 -11 75q-6 3 -12 3q-5 -3 -8 -8zM230 375q-45 -16 -91 -25q-4 5 -13 3q-12 -4 -19 -15q4 -6 12 -9h40q4 -8 9 -16q-1 -38 6 -82q-12 -6 -25 -7q-3 -5 -6 -11q3 -2 5 -7h16q48 20 97 34q29 0 53 -2
q-12 -20 -32 -36q4 -13 0 -26q-18 -14 -27 -33q-21 6 -37 15q-2 4 -1 8q10 9 18 20q-3 2 -2 5q6 8 15 15q12 0 25 1q7 5 11 9q-8 7 -15 12h-23q-40 -14 -70 -37q-2 -4 -2 -9q13 -3 27 -5q-19 -21 -33 -47q-25 -26 -51 -46v-12q7 0 14 2q19 14 37 29q3 1 6 -3
q-19 -26 -32 -57q13 1 22 9q15 20 27 41q5 4 10 -3q-14 -22 -25 -46q-16 -13 -30 -26q-3 -9 5 -15q12 5 21 11q10 -7 13 -19q14 -12 34 -17q6 6 14 10q10 27 18 53q0 15 1 31q4 10 9 21h17q50 -24 98 -50q13 -14 29 -28q3 4 8 6v10q-11 16 -24 27q-52 29 -105 54
q-13 1 -24 5q-2 5 -1 9q19 21 41 40q0 12 9 18q0 8 -4 12q7 10 18 11q17 20 28 44q-10 7 -17 13q-34 -5 -66 -2q-31 -8 -61 -19q-6 4 -6 5q24 15 50 29q6 22 26 36q-5 11 -16 19q-18 -2 -35 -4q-9 -7 -20 -12q-9 2 -18 0q2 12 -4 20q29 12 59 22q20 0 38 -4q0 -10 9 -16
q15 1 30 1q9 4 13 13q-6 8 -14 14q-24 1 -45 12q-22 -3 -44 -3zM230 103q5 -2 9 -9q-5 -36 -9 -73q-5 -9 -11 -19q-7 0 -14 -1q-12 12 -18 26l2 14q22 32 41 62zM210 119q5 -4 2 -10q-10 -2 -10 6q2 6 8 4zM206 142q9 -3 14 -11q-8 -1 -14 -6q-8 6 -6 14q2 3 6 3zM211 298
q4 0 3 -7q-5 -7 -13 -7q2 9 10 14zM192 432v-12q19 -8 35 -25q10 0 19 2q3 5 5 10l-14 14q-24 9 -45 11z"/>
            <glyph glyph-name="uni8D22" unicode="&#x8d22;"
                   d="M322 398q-5 -3 -7 -8q0 -7 5 -13q5 2 8 6q8 -3 19 -3q5 -36 4 -76q-8 -5 -17 -10l-28 -4q-13 -8 -27 -14q-17 0 -40 -1q-1 -3 -3 -5q2 -9 9 -16q12 1 26 0q20 6 43 13q1 -7 1 -16q-16 -26 -26 -56q-25 -35 -55 -70q-17 20 -41 41q-2 11 7 13q8 49 13 100q1 22 -2 41
q-7 12 -14 19q-22 0 -39 -8q-5 4 -9 8q-8 0 -13 -2q-13 3 -21 9q-7 1 -11 -3q-1 -11 8 -18q5 -1 10 -5q2 -23 3 -48l-6 -34q-3 -63 3 -125q4 -2 9 -7q-4 -11 -12 -21q-8 -4 -15 -7q-5 7 -11 6q-1 -13 8 -21q10 1 20 3q9 8 19 15q15 33 32 65q0 8 1 16q15 -14 33 -31
q7 -16 17 -29q12 2 23 9q28 25 55 59q13 36 32 71q1 16 1 32q5 8 15 6q-1 -115 -1 -229q-7 -1 -12 4q-2 8 -3 14l-12 12q-5 24 -16 44q-3 -3 -7 -5q2 -30 11 -54q14 -26 32 -49q11 -1 23 -6q2 8 5 16q-4 127 0 258q24 5 47 5q5 7 5 16q-5 6 -9 10q-24 3 -42 -5q0 42 -7 81
q-6 5 -12 9q-15 0 -29 -2zM190 317q6 -30 3 -64q-7 -8 -6 -21q-10 27 -15 63q-6 9 -14 11q-2 -4 -6 -8q6 -31 12 -63q-7 -24 -6 -52q-8 -26 -16 -53q-3 24 -4 45q-2 67 6 133q20 10 46 9z"/>
            <glyph glyph-name="uni8D25" unicode="&#x8d25;"
                   d="M78 294q5 -40 7 -77q-6 -42 -9 -87q0 -11 8 -20q6 2 11 8q-2 47 6 93q0 37 -4 70q-5 13 -14 16q-4 0 -5 -3zM113 297v-7q15 6 32 8q12 -6 15 -18q-7 -35 -5 -74q-7 -7 -7 -18q-4 2 -7 6q-1 27 -7 49q-10 10 -21 7q0 -8 5 -16q2 -48 0 -98q-10 -22 -18 -48
q-10 -13 -20 -27q-19 -3 -30 -8q4 -5 9 -9q11 -1 24 0q11 14 25 24q15 25 25 55q10 -6 20 -23q1 -13 7 -26q13 -11 27 -21q13 2 26 3q19 11 34 25q13 24 30 41q29 -20 53 -48q28 -17 55 -34q27 -10 59 -12q10 4 19 10q-2 4 -5 6q-22 6 -45 8q-39 18 -73 40q-25 27 -56 48
q4 22 16 38q1 23 4 44q-3 12 -7 19q0 8 4 13q-1 4 -5 4q-9 -7 -15 -15q4 -33 -4 -67q-5 -10 -9 -21q-29 22 -52 43q-9 3 -17 4q-7 -4 -6 -12q34 -23 66 -51q-6 -5 -4 -14q-5 -6 -11 -8q-3 -10 -8 -20q-11 -7 -22 -19q-9 -3 -18 -5q-20 31 -49 61q-6 12 -6 25q7 -2 19 -3
q10 40 16 84v53q-4 9 -9 16q-16 7 -35 5q-11 -6 -19 -17zM261 380q-1 -15 4 -29q-5 -20 -6 -41q-14 -15 -17 -39q-4 -5 -9 -5q-8 -21 -14 -44q4 -5 10 -6q22 14 42 36q17 13 35 20q17 2 33 6q4 4 3 10q-8 6 -9 14q-19 -7 -39 -13q-22 -18 -39 -24q17 28 28 60v35
q-7 11 -12 21q-7 1 -10 -1z"/>
            <glyph glyph-name="uni8D44" unicode="&#x8d44;"
                   d="M165 336q-13 -13 -22 -26v-10q-20 -19 -30 -43q-13 -11 -26 -16q-2 -8 -1 -19q9 -6 20 -6q10 13 14 28q6 2 11 7q20 42 38 83q-2 4 -4 2zM97 361q12 -12 23 -20q1 -9 1 -20q8 -1 14 5v24q-17 12 -33 22q-8 -2 -5 -11zM208 407q-5 -14 -3 -32q-9 -25 -27 -44
q-5 -14 -8 -30q5 -1 5 -7h12q5 10 9 23q13 15 30 31q12 5 25 6q-6 -19 -10 -37q-6 -5 -12 -11q-3 -8 -5 -17q-20 -22 -41 -43q-8 -2 -16 -2v-10q-6 -3 -12 -4q1 -11 12 -19q-6 -51 -6 -105q2 -15 7 -30q12 1 14 -10q-20 -20 -46 -33q-9 3 -16 7q-2 -5 -3 -11q8 -4 11 -11
q11 -1 24 -1q7 7 18 7q15 18 36 35q5 21 18 38q34 -14 71 -31q29 -28 62 -57q15 -3 30 -8q4 7 6 13q-10 10 -20 18q-12 4 -22 8q-33 29 -66 52q2 35 13 69q-4 30 -2 66q-5 10 -14 17q-10 -2 -17 -8q-4 4 -7 5q-12 -9 -25 -17q-16 0 -31 -3q-2 -8 -10 -9q-2 6 -5 9
q13 18 36 31q16 20 29 42q66 -33 133 -65q22 -3 42 0v12q-25 11 -50 12q-39 19 -78 42q19 32 46 56q-1 10 1 18q-10 7 -18 12q-44 0 -81 -12q-4 5 -11 3q-6 -9 -16 -8q3 15 4 33q-4 6 -9 11q-4 1 -7 -1zM211 203q3 1 5 -3q-2 -26 -4 -59q-6 -8 -11 -17q2 -13 0 -31
q-5 -7 -13 -13q-1 13 -6 29q0 43 5 78q11 5 24 16zM277 222q-1 -26 1 -52q-3 -5 -6 -12q0 -10 3 -20q-4 -9 -7 -19q-12 19 -22 43q-6 1 -9 -4q6 -25 16 -51q-14 5 -25 14q6 36 3 71q-8 5 -8 12q25 12 54 18zM324 365q1 -3 1 -8q-23 -22 -43 -45q-10 -3 -18 2v12q3 6 9 11
q-3 11 -5 20q27 10 56 8z"/>
            <glyph glyph-name="uni8D5A" unicode="&#x8d5a;"
                   d="M300 291q-6 -3 -11 -5q-7 12 -13 20h-9q-5 -5 -4 -13q7 -5 6 -14q-11 -9 -27 -10q-5 -4 -3 -14q16 0 33 -2q-1 -12 -1 -26q-32 -15 -63 -28h-14q-7 -4 -5 -13l12 -6q34 10 68 26q4 -12 4 -28q-24 -14 -46 -28q2 -6 6 -11q17 8 37 12q1 -3 1 -7q-12 -7 -20 -18
q-4 -13 -8 -23q-15 -18 -27 -34q-9 -5 -19 -8q-11 10 -20 5q-3 -8 0 -16q6 -7 15 -12q11 6 25 7q24 24 45 53v9q4 2 8 3q4 -41 -3 -79q4 -8 14 -8q5 28 11 55q-5 39 -3 82q7 10 16 11l4 -4q-1 -26 -6 -52q9 -42 8 -88q-8 2 -8 12q-5 2 -11 1q-1 -11 2 -21q8 -5 12 -18
q10 -8 22 -12q1 4 5 7q-8 71 -11 135q2 4 5 6q15 -5 31 -10q19 -14 39 -31q34 -18 71 -41q2 5 7 4q1 14 -3 24q-32 14 -63 26q-28 22 -58 39q-16 0 -26 10v12q3 5 10 4q5 -8 16 -6q20 29 29 59v20q16 11 32 16h18q-2 -7 -10 -15q1 -2 4 -5q16 6 33 10q4 8 3 17q-5 5 -7 11
q-23 4 -48 0q-10 -8 -18 -9q-12 21 -27 40h-16q-12 -3 -22 -12q-10 10 -21 12q-7 -8 -1 -21zM305 221q7 -10 5 -25q-11 -11 -21 -9q2 12 3 26q6 6 13 8zM360 243q0 -14 -4 -29q-12 -3 -24 -3q-8 7 -5 18q6 3 7 8q12 4 26 6zM305 272q3 -14 5 -30q-7 -7 -17 -5q-6 14 -4 30
q6 6 16 5zM352 299q11 -11 13 -28q-14 -14 -32 -19q-4 2 -6 5q-3 13 -2 27q9 12 27 15zM116 337q17 -1 44 1q4 -4 8 -10q-1 -18 -1 -36q-7 -24 -13 -52q-6 9 -9 18q1 29 -6 53q-5 6 -12 6q-1 -3 -3 -5q-5 9 -13 17q-14 3 -28 3q-4 -2 -3 -7q6 -6 13 -11q5 -83 -4 -170
q7 -7 17 -12v-15q-12 -15 -22 -29q-13 -8 -27 -19q-12 2 -20 5v-10q13 -9 31 -12q5 10 19 12q16 20 34 41q2 12 5 24q6 5 10 12q0 14 2 26q4 5 8 6q21 -21 41 -46q7 -1 16 -2q3 6 4 13q-33 32 -61 64q7 1 22 -2q6 42 15 82q2 30 0 58q-11 8 -21 16h-21q-18 -8 -25 -19z
M122 309q4 -17 7 -36q-6 -37 -3 -80q-6 -19 -9 -42q-6 2 -9 12q4 71 6 142q2 5 8 4zM229 382q16 -17 30 -40h14q6 7 6 16h-9q-13 15 -24 32h-14q-4 -2 -3 -8zM347 398q-39 -35 -74 -66q-22 0 -37 -15q2 -5 9 -10q20 8 44 11q22 13 45 24q11 0 21 -6q11 4 22 11q0 13 -10 16
q-24 -1 -40 -5q12 15 37 35q2 17 -5 28h-6q-7 -10 -6 -23z"/>
            <glyph glyph-name="uni8F66" unicode="&#x8f66;"
                   d="M222 392q-5 -26 -12 -52q-8 2 -11 -5q-29 -1 -53 5q-9 -4 -8 -14q4 -8 12 -15q26 -5 54 0q-2 -23 -6 -44q-16 -35 -35 -68q3 -5 4 -12q11 -3 25 -1q22 13 45 21q1 -5 6 -9q1 -12 -2 -22l-7 -7q-53 -10 -113 -19q-6 -5 -9 -11q-2 -8 6 -13q8 1 16 -3q31 7 62 16q21 2 41 2
q-1 -33 -3 -65q-6 -8 -13 -16q0 -14 1 -29q3 -12 13 -19q6 1 11 4q9 60 16 124q8 8 18 11q32 -1 66 6q22 -9 49 -13l7 7q-1 9 -4 15q-20 11 -40 18q-14 2 -27 0q-20 -7 -43 -12q-10 5 -22 3q-4 22 2 41q24 7 52 7q3 5 7 8q2 14 -4 23q-28 -5 -54 -16q-4 3 -7 6q-3 21 -3 41
q-6 5 -10 13q-6 0 -12 -1q-7 -7 -12 -14q2 -16 12 -26q1 -10 1 -22q-5 -5 -10 -9q-16 -5 -30 -7q21 51 36 101q45 13 92 12q11 6 10 19q-8 9 -18 11q-42 -5 -78 -16v52q-12 1 -18 -6z"/>
            <glyph glyph-name="uni8FBE" unicode="&#x8fbe;"
                   d="M269 235q7 -27 22 -49q7 -12 20 -20q13 -20 23 -40q11 0 16 9q0 8 -2 14q-41 41 -67 88q-7 4 -12 -2zM77 303v-11q7 -10 20 -18q-4 -17 -17 -27v-24q8 -7 13 -17q0 -17 4 -34q12 -22 28 -43q-26 -4 -55 0q-12 -2 -20 -9q-1 -8 4 -13q23 -1 51 0q56 -17 117 -28
q56 -24 114 -46q60 -1 117 2l10 10q-2 5 -6 8q-59 3 -117 6q-3 4 -8 7h-20q-52 23 -109 40h-16q-25 8 -46 18q2 3 2 7q-18 31 -33 62q3 8 2 17q-6 14 -17 22q13 29 23 58q-21 4 -34 16q-4 0 -7 -3zM234 367q-1 -10 6 -17q-2 -41 -1 -72q-39 -15 -75 -35q-3 -4 -3 -10
q6 -7 19 -5q23 16 53 24q-2 -14 -3 -29q-15 -19 -17 -47q-14 -21 -30 -39q-12 0 -19 6q-8 -5 -3 -14q7 -7 16 -12q10 1 20 6q19 26 37 49q13 47 24 91q37 13 71 31q-3 11 -9 19q-16 4 -26 16q-4 1 -6 -3q-10 13 -20 21q-7 15 -15 29q-6 3 -13 2q-5 -4 -6 -11zM264 335
q4 -5 8 -12q8 2 13 -4v-9q5 -1 9 -6q-12 -15 -32 -17q-4 26 2 48z"/>
            <glyph glyph-name="uni9047" unicode="&#x9047;"
                   d="M81 299q6 -17 19 -32q4 -21 -1 -43q-8 -12 -20 -20q-6 -7 -3 -17q10 -35 23 -73q-18 -8 -38 -15v-7q68 -9 135 -28q5 2 11 3q12 -7 27 -16q40 -11 81 -24q56 -2 115 0q10 8 22 15q-3 2 -5 5h-111q-5 4 -7 7q-39 3 -76 13l-22 14q-22 2 -39 10q-6 -1 -17 -3q-23 12 -43 13
q-26 47 -40 94q12 15 23 29q3 27 2 51q-7 10 -9 20q-10 7 -22 11q-4 -2 -5 -7zM229 374l-5 5q-14 -3 -25 -13q-2 -5 -2 -11q51 1 90 8q3 -14 3 -30q-10 -23 -21 -45q-13 1 -16 10q13 15 20 32q-5 7 -9 12q-17 1 -33 3q-14 -11 -32 -15q-8 18 -9 37q-20 3 -41 9l-6 -6
q-3 -7 3 -15q16 1 24 -12q6 -29 14 -60q-2 -17 0 -37q-10 -11 -18 -23q-4 -31 -7 -63q3 -2 6 -5q-2 -26 1 -48q3 -5 10 -9q3 6 7 12q-2 53 0 103q6 -5 22 -13q4 12 18 11q-2 -22 -8 -44q-8 -6 -16 -14q-6 -9 2 -17q8 1 15 3q27 23 51 45q14 -18 25 -38l10 16q-6 12 -4 21
q-12 21 -24 39q-12 -5 -11 -20q-15 -13 -27 -17q4 18 7 35q18 9 40 14q20 1 38 2q0 -17 1 -38q-6 -21 -10 -43q-5 -10 -12 -20q-9 2 -20 6q-7 11 -11 22q-6 5 -10 0q-3 -15 2 -28q13 -13 28 -21q12 2 19 -2q12 11 19 24q4 29 13 55q1 24 1 48q-5 5 -6 12q-12 6 -27 5
q-30 -6 -59 -8q18 6 33 23q12 27 24 51q5 24 5 49q-4 10 -12 14q-36 0 -70 -11zM225 250q2 -10 -5 -17q-9 0 -6 9q4 7 11 8zM227 315l6 -6q-2 -13 -3 -23q-4 -1 -8 -1q-9 10 -16 16q-2 5 2 8q11 0 19 6z"/>
            <glyph glyph-name="uni91CC" unicode="&#x91cc;"
                   d="M265 355q-6 1 -10 5q-4 -2 -8 -5h-48q-7 -2 -10 -6q-3 -7 0 -15q16 -1 39 3q5 -22 15 -42q-27 -10 -49 -22q-5 -5 -3 -15q4 -4 7 -11q-5 -7 -6 -15q-7 12 -13 22q-12 42 -22 84q-9 12 -21 13q-5 -3 -3 -9q32 -84 60 -168q5 -5 12 -10q4 -1 8 2v9q7 11 20 17q3 -1 5 -4
q-1 -15 0 -30q-22 -9 -43 -16l-16 -16v-11q18 -16 38 -22q3 -5 5 -11q-9 -3 -15 -10q-30 -9 -56 -9q-4 -4 -8 -10q2 -7 9 -12q19 0 37 4l20 12q10 0 20 1q15 9 34 16q36 6 74 3q16 -9 38 -11l7 7q0 6 -4 9q-24 12 -47 19q-37 -7 -73 -9q0 15 -1 30q13 4 26 10q8 11 17 20
q0 9 3 16q-8 6 -16 13q-15 2 -25 -5q-7 6 -4 17q19 -5 38 -7q11 15 23 32q9 38 23 73q-1 31 0 65q-6 9 -10 14q-38 -7 -67 -15zM237 134q-1 -20 3 -37q-16 10 -32 22q14 10 29 15zM274 157q2 -8 -5 -15q-10 -2 -15 2q8 9 20 13zM212 236q7 -7 17 -16q-7 -9 -17 -16
q-3 17 0 32zM243 268q2 -19 -4 -33q-15 10 -22 25q12 11 26 8zM262 277q6 -4 13 0q1 -4 1 -11q-4 -9 -12 -11q-6 11 -2 22zM316 352q12 -10 13 -29q-10 -23 -9 -52q-12 -31 -29 -61h-21q-5 4 -5 9q7 11 17 18v14q5 8 10 15q2 16 -7 26q-12 2 -23 5q-2 22 -12 39q35 6 66 16z
"/>
            <glyph glyph-name="uni91D1" unicode="&#x91d1;"
                   d="M205 228q-8 -6 -3 -16q13 -6 26 1q6 -27 6 -55q-11 2 -19 -3l-7 7q-7 -4 -13 -13q0 -5 2 -10q18 -4 38 -7q-2 -6 -2 -14q-10 -6 -17 -15q-13 8 -25 15q-5 1 -6 -4q-1 -15 2 -30q5 -10 18 -15q2 5 7 10q6 -8 10 -20q-24 -5 -50 -1q-5 -9 2 -19q76 -3 147 4q21 -8 45 -12
q3 5 7 8q-12 7 -11 18q-19 3 -34 10q-29 -5 -51 2q15 19 33 37q6 12 10 24q-5 11 -12 19q-4 -2 -7 -6q-15 -2 -22 5q5 3 11 5q-3 11 -7 18l-26 12q-4 -12 -8 -22q-3 18 1 35q20 13 41 30q1 13 -3 23q-42 -13 -83 -21zM274 131q8 -5 20 -5q-13 -19 -30 -42q-12 -9 -19 -10
q1 23 3 45q11 8 26 12zM275 147q-11 -4 -23 -16q-4 4 -2 11q10 7 25 5zM262 220q-9 -4 -14 -11q-8 7 -1 13q11 4 15 -2zM220 377q2 -9 9 -16q-53 -85 -108 -164q-20 -18 -46 -30q-2 9 -11 7q-4 -9 0 -20q6 -1 12 -7q22 6 42 21q22 28 46 54q34 56 72 108q18 -20 38 -33
q26 -37 55 -74q20 -11 32 -30q11 -5 25 -12q28 -23 56 -52q5 -1 10 0v10q-21 23 -43 44q-19 14 -39 26q-31 33 -63 63q-14 19 -23 36q-20 19 -39 33q-1 4 2 6h16q0 5 4 9q-4 9 -10 13q-19 1 -31 11q-4 -1 -6 -3z"/>
            <glyph glyph-name="uni94B1" unicode="&#x94b1;"
                   d="M307 357q8 -3 13 -13q34 -7 62 -25q6 0 11 5v11q-17 15 -32 25q-15 -1 -22 8q-4 -1 -6 -5q-12 7 -19 9q-7 -5 -7 -15zM122 377q-1 -22 -3 -41q-5 -2 -7 -5q0 -7 -1 -15q-7 -2 -12 -9q3 -6 3 -16l-9 -9l-28 -74q0 -6 4 -10q6 0 8 5q7 16 13 34q7 8 14 14q3 18 14 31
q9 8 21 3q10 10 21 18q12 -6 22 -12q9 12 16 22q-2 8 -2 14q-8 6 -15 9q-21 -3 -40 -9q4 20 2 39q-6 7 -10 12q-7 1 -11 -1zM215 398q8 -12 17 -29q5 -31 7 -59q-13 -6 -16 -20q6 -9 17 -8q3 -10 9 -20v-30q-12 -6 -21 -14q-4 0 -6 2q-13 -18 -29 -30q-12 15 -26 25
q-17 5 -33 0q-5 3 -4 7l24 10q4 -2 10 -3q7 13 20 16q6 9 10 19q-3 8 -9 14q-42 -19 -76 -36q-4 -8 2 -19q7 1 13 -6q1 -21 0 -42q-19 -12 -35 -26q-18 0 -30 -12q-1 -8 6 -14q16 5 36 9q7 13 23 15q4 -6 6 -12q-2 -15 -6 -31l4 -4q-5 -9 -9 -18q0 -27 -7 -52q5 -5 11 -8
q5 1 10 3q27 61 69 119q0 11 -1 21h-11q-15 -25 -35 -44q-2 12 -5 22q1 14 10 26q14 6 25 16q12 -4 26 -7q15 10 29 25q9 5 21 7q14 -21 24 -42q4 -11 6 -24q-19 -23 -39 -47q-9 -2 -14 -7q-7 6 -15 7q-3 -13 7 -23q14 -3 29 -1q18 23 42 39q11 -15 19 -33q28 -26 52 -47
q37 -10 75 -29q2 5 8 3q-22 75 -45 147q-6 -16 -2 -40q15 -40 23 -82q-24 8 -49 17q-28 20 -50 49q-5 21 -17 38q1 12 4 21q5 2 9 6q10 34 24 67q-3 10 -9 16q-6 1 -10 -1q-6 -22 -13 -46q-9 -12 -17 -21q-11 26 -23 47q13 9 26 17q-5 16 -18 24q-6 -7 -14 -9q-8 16 -9 30
q12 3 23 9q8 11 9 24q-5 5 -10 8q-13 -1 -22 -8q-6 4 -8 8q-3 14 3 22q-9 24 -17 46q-9 13 -22 13q-7 -2 -6 -10z"/>
            <glyph glyph-name="uni9879" unicode="&#x9879;"
                   d="M123 274q-19 2 -36 0q-3 3 -4 5q-4 -1 -6 -5q-2 -11 4 -18q26 -4 55 3q1 -3 4 -6q-1 -25 -7 -46v-73q-24 -21 -46 -39v-12q7 -10 19 -9q7 13 19 22l22 4q7 10 5 25q19 17 38 42q-5 5 -12 3q-14 -5 -25 -13q-1 49 8 102q16 10 36 12q2 3 2 7q-6 9 -12 14q-35 -5 -64 -18z
M260 353q-19 0 -37 -4q-4 -3 -2 -9q8 -5 18 -9q18 1 34 6q3 -6 2 -14q-11 -20 -18 -43q-8 0 -14 6q-3 -40 -6 -76q-3 -47 3 -96q7 -2 17 -7q1 48 1 101q2 16 8 29q13 3 22 4q-2 -20 2 -42q-7 -47 -21 -91q-18 -19 -33 -38q-13 -4 -24 -12q-9 -1 -18 0q-5 -4 -3 -12
q6 -5 12 -9h13q32 17 58 39q16 30 28 63q68 -55 136 -105q-2 12 -1 22q-33 26 -58 48q-11 8 -22 11q-26 27 -55 50q9 38 5 81q-6 1 -6 6q22 11 44 18q3 -32 0 -77q-4 -9 -6 -18q-9 13 -15 27q-5 2 -8 -2v-21q9 -21 24 -38q4 -2 9 -2q3 5 7 10q4 34 10 69q0 30 -2 56
q-5 7 -8 15q-5 4 -10 3q-39 -19 -78 -37q7 26 21 48q6 20 2 37q7 5 16 5q0 -3 4 -7h13q11 7 23 15q-3 9 -4 18q-10 -1 -13 5q-35 -12 -70 -23z"/>
            <glyph glyph-name="uni9C9C" unicode="&#x9c9c;"
                   d="M247 402q4 -18 7 -39q4 -7 9 -14q8 1 12 8q3 17 12 31q-1 4 -5 5q-8 0 -13 -4q-6 10 -12 18q-8 2 -10 -5zM309 418q-6 -3 -5 -10l18 -9v-8q-30 -34 -72 -68q-18 -3 -32 -15q-1 -7 3 -13q35 4 66 13q3 -7 2 -17q-15 -12 -24 -24q-20 -4 -35 -19q-2 -7 2 -12q8 2 14 -3
q20 15 42 18q1 -15 1 -32q-5 -2 -10 0q-9 -5 -14 -12q-29 -4 -59 -18q-2 6 -3 12q3 17 9 34v60q-7 4 -9 12q-12 4 -24 4q-5 3 -5 7q17 16 33 38q2 11 -7 17q-30 3 -50 9q3 5 7 8q1 10 -4 16q-6 2 -12 -1q-29 -62 -62 -114q3 -10 16 -10q5 7 9 14q7 -67 11 -131q6 -6 15 -6
q5 7 4 19q11 7 22 13q11 -14 21 -29q-32 -25 -68 -54q-1 -7 2 -14l16 2q32 31 64 54q6 14 17 25q3 -3 9 -3q28 14 70 24q11 -67 2 -138q5 -22 7 -47q-9 -8 -3 -19q4 3 10 7q7 16 12 31q-3 8 -6 15q4 76 0 154q3 2 6 6q40 2 74 4q18 -3 33 -12q4 5 10 6q1 13 -7 21
q-45 7 -88 7q-15 -7 -28 -4q0 7 6 16q6 0 14 10q9 16 5 34q-9 4 -16 0q-4 4 -3 8q14 17 30 33q-3 5 0 12q-10 9 -26 6q-6 -2 -10 -6q-6 2 -6 6q24 17 42 48v9q-9 11 -20 18q-9 -1 -16 -2zM148 235q0 -14 -4 -27q-5 -1 -10 -1q-6 14 -1 25q7 6 15 3zM167 295q14 -1 25 -8
q3 -37 -4 -72q-11 7 -24 2q6 11 3 26q5 4 13 3q10 12 7 27q-8 0 -12 -6q-5 6 -8 11q-1 10 0 17zM151 295q1 -12 0 -30q-9 -6 -19 -8q-7 14 -4 31q9 8 23 7zM306 321h9q0 -3 -3 -7q-8 1 -6 7zM155 361q12 -4 22 -12q-20 -18 -40 -39q-11 -1 -17 3v13q13 14 17 31q7 6 18 4z
"/>
            <glyph glyph-name="uniFF0C" unicode="&#xff0c;"
                   d="M103 58q-14 -8 -26 -20q-1 -19 2 -37q8 -7 19 -1q2 -10 1 -27q-6 -2 -8 2q-12 -18 -25 -36q22 -2 40 8q14 16 26 33q4 19 5 39q-8 20 -11 38q-12 3 -23 1z"/>
        </font>
</defs>
</svg>
